<svg width="64" height="64" viewBox="0 0 64 64" fill="none" xmlns="http://www.w3.org/2000/svg">
<g id="material-symbols-light:group">
<path id="Vector" d="M6.92285 49.6399V45.2532C6.92285 44.0159 7.24285 42.9519 7.88285 42.0612C8.52463 41.1724 9.38685 40.4612 10.4695 39.9279C12.7806 38.8257 15.0775 37.9475 17.3602 37.2932C19.6393 36.6372 22.3824 36.3092 25.5895 36.3092C28.7966 36.3092 31.5406 36.6372 33.8215 37.2932C36.1024 37.9492 38.3984 38.8266 40.7095 39.9252C41.7922 40.4586 42.6544 41.1706 43.2962 42.0612C43.9362 42.9519 44.2562 44.0159 44.2562 45.2532V49.6426L6.92285 49.6399ZM49.5895 49.6399V45.1279C49.5895 43.5812 49.2766 42.1235 48.6509 40.7546C48.0251 39.3857 47.138 38.2079 45.9895 37.2212C47.2997 37.4879 48.562 37.8577 49.7762 38.3306C50.9904 38.8035 52.1904 39.3368 53.3762 39.9306C54.5317 40.5101 55.4375 41.2532 56.0935 42.1599C56.7495 43.0666 57.0775 44.0559 57.0775 45.1279V49.6399H49.5895ZM25.5895 30.3599C23.3904 30.3599 21.5069 29.5759 19.9389 28.0079C18.3709 26.4399 17.5886 24.5572 17.5922 22.3599C17.5957 20.1626 18.378 18.2781 19.9389 16.7066C21.4997 15.135 23.3842 14.3528 25.5922 14.3599C27.8002 14.367 29.6829 15.1492 31.2402 16.7066C32.7975 18.2639 33.5806 20.1484 33.5895 22.3599C33.5984 24.5715 32.8153 26.4541 31.2402 28.0079C29.6651 29.5617 27.7815 30.3457 25.5895 30.3599ZM44.9762 22.3599C44.9762 24.559 44.1922 26.4417 42.6242 28.0079C41.0562 29.5741 39.1726 30.3581 36.9735 30.3599C36.8615 30.3599 36.7184 30.3466 36.5442 30.3199C36.37 30.2932 36.226 30.2648 36.1122 30.2346C37.0153 29.1288 37.7095 27.9021 38.1949 26.5546C38.6802 25.207 38.9229 23.8061 38.9229 22.3519C38.9229 20.8977 38.6695 19.511 38.1629 18.1919C37.6562 16.8728 36.9726 15.6364 36.1122 14.4826C36.2562 14.4292 36.4002 14.3955 36.5442 14.3812C36.6864 14.367 36.8295 14.3599 36.9735 14.3599C39.1744 14.3599 41.0589 15.1421 42.6269 16.7066C44.1949 18.271 44.9797 20.1555 44.9762 22.3599Z" fill="#ffffff"/>
</g>
</svg>
