<svg width="64" height="64" viewBox="0 0 64 64" fill="none" xmlns="http://www.w3.org/2000/svg">
<g id="mdi:hand-coin">
<path id="Vector" d="M42.6667 32C50.0267 32 56 26.0267 56 18.6667C56 11.3067 50.0267 5.33337 42.6667 5.33337C35.3067 5.33337 29.3334 11.3067 29.3334 18.6667C29.3334 26.0267 35.3067 32 42.6667 32ZM57.2 46.9334C56.16 45.8667 54.8534 45.3334 53.3334 45.3334H34.6667L29.12 43.3867L30 40.88L34.6667 42.6667H42.1334C43.0667 42.6667 43.8134 42.2934 44.4267 41.68C45.04 41.0667 45.3334 40.32 45.3334 39.4934C45.3334 38.0534 44.64 37.0667 43.2534 36.5067L23.8667 29.3334H18.6667V53.3334L37.3334 58.6667L58.7467 50.6667C58.7734 49.2534 58.24 48 57.2 46.9334ZM13.3334 29.3334H2.62402V58.6667H13.3334V29.3334Z" fill="#ffffff"/>
</g>
</svg>
