<svg width="64" height="64" viewBox="0 0 64 64" fill="none" xmlns="http://www.w3.org/2000/svg">
<g id="ri:customer-service-2-fill">
<path id="Vector" d="M56.0003 21.3334C57.4148 21.3334 58.7714 21.8953 59.7716 22.8955C60.7718 23.8956 61.3337 25.2522 61.3337 26.6667V37.3334C61.3337 38.7478 60.7718 40.1044 59.7716 41.1046C58.7714 42.1048 57.4148 42.6667 56.0003 42.6667H53.1683C52.5182 47.8222 50.009 52.5632 46.1117 56C42.2143 59.4369 37.1966 61.3333 32.0003 61.3334V56C36.2438 56 40.3135 54.3143 43.314 51.3137C46.3146 48.3131 48.0003 44.2435 48.0003 40V24C48.0003 19.7566 46.3146 15.6869 43.314 12.6863C40.3135 9.68573 36.2438 8.00002 32.0003 8.00002C27.7569 8.00002 23.6872 9.68573 20.6866 12.6863C17.686 15.6869 16.0003 19.7566 16.0003 24V42.6667H8.00033C6.58584 42.6667 5.22928 42.1048 4.22909 41.1046C3.2289 40.1044 2.66699 38.7478 2.66699 37.3334V26.6667C2.66699 25.2522 3.2289 23.8956 4.22909 22.8955C5.22928 21.8953 6.58584 21.3334 8.00033 21.3334H10.8323C11.4831 16.1784 13.9925 11.4381 17.8899 8.00182C21.7872 4.56556 26.8045 2.66956 32.0003 2.66956C37.1962 2.66956 42.2135 4.56556 46.1108 8.00182C50.0081 11.4381 52.5176 16.1784 53.1683 21.3334H56.0003ZM20.6937 42.0934L23.5203 37.5707C26.0619 39.1628 29.0013 40.0049 32.0003 40C34.9994 40.0049 37.9388 39.1628 40.4803 37.5707L43.307 42.0934C39.9184 44.2164 35.9991 45.3395 32.0003 45.3334C28.0015 45.3396 24.0822 44.2165 20.6937 42.0934Z" fill="#ffffff"/>
</g>
</svg>
