<svg width="64" height="64" viewBox="0 0 64 64" fill="none" xmlns="http://www.w3.org/2000/svg">
<g id="material-symbols:design-services-sharp">
<path id="Vector" d="M23.4663 29.2L29.1997 23.4L25.4663 19.6L22.533 22.5334L18.7997 18.8L21.6663 15.8667L18.6663 12.8667L12.8663 18.6667L23.4663 29.2ZM45.333 51.1334L51.133 45.3334L48.133 42.3334L45.1997 45.2L41.4663 41.4667L44.333 38.5334L40.533 34.8L34.7997 40.5334L45.333 51.1334ZM43.2663 17.1334L46.9997 20.8667L50.733 17.1334L46.933 13.3334L43.2663 17.1334ZM19.333 56H7.99967V44.6667L19.6663 33L5.33301 18.6667L18.6663 5.33337L33.0663 19.7334L46.9997 5.73337L58.1997 17.0667L44.333 31L58.6663 45.3334L45.333 58.6667L30.9997 44.3334L19.333 56Z" fill="#ffffff"/>
</g>
</svg>
