<svg width="20" height="20" viewBox="0 0 20 20" fill="none" xmlns="http://www.w3.org/2000/svg">
<g id="material-symbols:location-on">
<path id="Vector" d="M9.99967 9.99984C10.458 9.99984 10.8505 9.83678 11.1772 9.51067C11.5038 9.18456 11.6669 8.79206 11.6663 8.33317C11.6663 7.87484 11.5033 7.48261 11.1772 7.1565C10.8511 6.83039 10.4586 6.66706 9.99967 6.6665C9.54134 6.6665 9.14912 6.82984 8.82301 7.1565C8.4969 7.48317 8.33356 7.87539 8.33301 8.33317C8.33301 8.7915 8.49634 9.184 8.82301 9.51067C9.14967 9.83734 9.5419 10.0004 9.99967 9.99984ZM9.99967 18.3332C7.76356 16.4304 6.09356 14.6632 4.98967 13.0315C3.88579 11.3998 3.33356 9.88928 3.33301 8.49984C3.33301 6.4165 4.00329 4.75678 5.34384 3.52067C6.6844 2.28456 8.23634 1.6665 9.99967 1.6665C11.7636 1.6665 13.3158 2.28456 14.6563 3.52067C15.9969 4.75678 16.6669 6.4165 16.6663 8.49984C16.6663 9.88873 16.1144 11.3993 15.0105 13.0315C13.9066 14.6637 12.2363 16.4309 9.99967 18.3332Z" fill="#333333"/>
</g>
</svg>
