<svg width="24" height="24" viewBox="0 0 24 24" fill="none" xmlns="http://www.w3.org/2000/svg">
<g id="bxl:pinterest-alt">
<path id="Vector" d="M5.07721 9.45696C5.07721 8.67896 5.21321 7.94396 5.48121 7.25796C5.73727 6.59166 6.11769 5.98013 6.60221 5.45596C7.08575 4.93867 7.63908 4.49136 8.24621 4.12696C8.86913 3.75011 9.54351 3.4658 10.2482 3.28296C10.9614 3.09568 11.6958 3.00123 12.4332 3.00196C13.5722 3.00196 14.6322 3.24296 15.6152 3.72296C16.5854 4.1942 17.4112 4.9174 18.0062 5.81696C18.6202 6.73196 18.9252 7.76696 18.9252 8.92096C18.9252 9.61296 18.8572 10.29 18.7182 10.952C18.5817 11.6136 18.3648 12.256 18.0722 12.865C17.7933 13.4544 17.4287 13.9993 16.9902 14.482C16.5495 14.9569 16.0158 15.3361 15.4222 15.596C14.7778 15.8784 14.0807 16.0205 13.3772 16.013C12.8882 16.013 12.4002 15.898 11.9182 15.667C11.4362 15.437 11.0902 15.121 10.8822 14.716C10.8092 14.997 10.7092 15.403 10.5762 15.934C10.4482 16.464 10.3622 16.806 10.3242 16.961C10.2842 17.115 10.2102 17.372 10.1022 17.728C10.029 17.9913 9.93501 18.2484 9.82121 18.497L9.47721 19.171C9.32844 19.4602 9.16213 19.74 8.97921 20.009C8.79821 20.271 8.57421 20.584 8.30721 20.944L8.15821 20.997L8.05921 20.889C7.95221 19.756 7.89721 19.078 7.89721 18.854C7.89721 18.191 7.97621 17.447 8.13221 16.621C8.28521 15.796 8.52721 14.759 8.85221 13.512C9.17721 12.266 9.36321 11.533 9.41321 11.316C9.18421 10.849 9.06821 10.239 9.06821 9.48896C9.06821 8.88996 9.25521 8.32896 9.63021 7.80096C10.0062 7.27496 10.4812 7.01196 11.0572 7.01196C11.4982 7.01196 11.8402 7.15796 12.0852 7.45096C12.3312 7.74296 12.4512 8.11096 12.4512 8.55996C12.4512 9.03596 12.2932 9.72496 11.9752 10.626C11.6572 11.528 11.4992 12.201 11.4992 12.648C11.4992 13.101 11.6612 13.48 11.9852 13.777C12.305 14.0741 12.7278 14.2351 13.1642 14.226C13.5602 14.226 13.9272 14.136 14.2682 13.955C14.6039 13.7793 14.8944 13.5284 15.1172 13.222C15.6024 12.5563 15.9483 11.7995 16.1342 10.997C16.2302 10.575 16.3042 10.174 16.3502 9.79696C16.3992 9.41796 16.4202 9.05996 16.4202 8.71996C16.4202 7.47296 16.0242 6.50096 15.2372 5.80496C14.4462 5.10896 13.4162 4.76296 12.1492 4.76296C10.7082 4.76296 9.50321 5.22896 8.53821 6.16396C7.57221 7.09596 7.08621 8.28096 7.08621 9.71796C7.08621 10.035 7.13421 10.341 7.22521 10.637C7.31421 10.932 7.41121 11.167 7.51621 11.341C7.62021 11.512 7.71821 11.679 7.80721 11.833C7.89721 11.987 7.94421 12.097 7.94421 12.163C7.94421 12.365 7.89121 12.628 7.78421 12.953C7.67321 13.278 7.54221 13.44 7.38421 13.44C7.36921 13.44 7.30721 13.429 7.19921 13.406C6.82517 13.2943 6.48739 13.0855 6.22021 12.801C5.93665 12.506 5.71287 12.159 5.56121 11.779C5.40999 11.4003 5.29221 11.0091 5.20921 10.61C5.11954 10.2322 5.07523 9.84517 5.07721 9.45696Z" fill="white"/>
</g>
</svg>
