<svg width="44" height="44" viewBox="0 0 44 44" fill="none" xmlns="http://www.w3.org/2000/svg">
<g id="icon">
<path id="Vector" d="M31.8475 34.0763L30.6467 32.8737C30.4878 32.716 30.3002 32.6372 30.0838 32.6372C29.8663 32.6372 29.6787 32.716 29.521 32.8737C29.3633 33.0301 29.2845 33.2153 29.2845 33.4292C29.2845 33.6431 29.3633 33.8288 29.521 33.9865L31.0977 35.5632C31.325 35.7917 31.581 35.906 31.8658 35.906C32.1506 35.906 32.4067 35.7917 32.634 35.5632L36.4803 31.7737C36.638 31.616 36.7229 31.4345 36.7352 31.2292C36.7474 31.0226 36.6624 30.8289 36.4803 30.648C36.3227 30.4903 36.1295 30.4115 35.901 30.4115C35.6724 30.4115 35.4787 30.4909 35.3198 30.6498L31.8475 34.0763ZM13.329 16.0052H30.676C30.9363 16.0052 31.1539 15.9178 31.3287 15.743C31.5034 15.5682 31.5914 15.3501 31.5927 15.0885C31.5927 14.8037 31.5047 14.5801 31.3287 14.4175C31.1539 14.2537 30.9363 14.1718 30.676 14.1718H13.3272C13.0668 14.1718 12.8487 14.2592 12.6727 14.434C12.4967 14.6088 12.4093 14.8269 12.4105 15.0885C12.4117 15.3501 12.4991 15.5682 12.6727 15.743C12.8462 15.9178 13.0662 16.0052 13.329 16.0052ZM33.0007 40.5462C30.9583 40.5462 29.2258 39.8342 27.8032 38.4103C26.3793 36.9877 25.6673 35.2552 25.6673 33.2128C25.6673 31.1705 26.3793 29.4374 27.8032 28.0135C29.227 26.5896 30.9595 25.8783 33.0007 25.8795C35.0418 25.8807 36.7749 26.5921 38.2 28.0135C39.6251 29.4349 40.3364 31.1681 40.334 33.2128C40.334 35.2539 39.6227 36.9864 38.2 38.4103C36.7749 39.8342 35.0418 40.5462 33.0007 40.5462ZM7.33398 10.2962C7.33398 9.47483 7.62243 8.77572 8.19932 8.19883C8.77621 7.62194 9.47532 7.3335 10.2967 7.3335H33.7065C34.5254 7.3335 35.2239 7.62194 35.802 8.19883C36.3789 8.77572 36.6673 9.47483 36.6673 10.2962V20.044C36.6673 20.3043 36.5799 20.5225 36.4052 20.6985C36.2304 20.8745 36.0122 20.9619 35.7507 20.9607C35.4891 20.9594 35.2709 20.8721 35.0962 20.6985C34.9214 20.5249 34.834 20.3068 34.834 20.044V10.2962C34.834 10.0138 34.7167 9.75472 34.482 9.51883C34.2473 9.28294 33.9882 9.16561 33.7047 9.16683H10.2967C10.0143 9.16683 9.75521 9.28416 9.51932 9.51883C9.28343 9.7535 9.1661 10.0126 9.16732 10.2962V34.9252H20.798C20.8359 35.1721 20.8805 35.4189 20.9318 35.6658C20.9844 35.9127 21.0516 36.1559 21.1335 36.3955C21.2154 36.6143 21.1604 36.7933 20.9685 36.9327C20.7754 37.0732 20.592 37.0793 20.4185 36.951L19.962 36.6393C19.8263 36.5501 19.6833 36.5055 19.533 36.5055C19.3827 36.5055 19.239 36.5501 19.1022 36.6393L17.4943 37.7522C17.3587 37.8426 17.2157 37.8878 17.0653 37.8878C16.915 37.8878 16.7714 37.8426 16.6345 37.7522L15.0267 36.6393C14.8898 36.5501 14.7462 36.5055 14.5958 36.5055C14.4455 36.5055 14.3025 36.5501 14.1668 36.6393L12.559 37.7522C12.4233 37.8426 12.2803 37.8878 12.13 37.8878C11.9797 37.8878 11.836 37.8426 11.6992 37.7522L10.0913 36.6393C9.95443 36.5501 9.81082 36.5055 9.66048 36.5055C9.51015 36.5055 9.36715 36.5501 9.23148 36.6393L7.33398 38.1115V10.2962ZM13.329 29.8267H20.4313C20.6929 29.8267 20.911 29.7393 21.0858 29.5645C21.2606 29.3897 21.348 29.1716 21.348 28.91C21.348 28.6484 21.2606 28.4309 21.0858 28.2573C20.911 28.0838 20.6929 27.9958 20.4313 27.9933H13.329C13.0687 27.9933 12.8505 28.0813 12.6745 28.2573C12.4985 28.4333 12.4111 28.6509 12.4123 28.91C12.4135 29.1691 12.5009 29.3873 12.6745 29.5645C12.848 29.7417 13.0662 29.8291 13.329 29.8267ZM13.329 22.9168H26.5363C26.7967 22.9168 27.0148 22.8294 27.1908 22.6547C27.3668 22.4799 27.4542 22.2617 27.453 22.0002C27.4518 21.7386 27.3644 21.5204 27.1908 21.3457C27.0173 21.1709 26.7991 21.0835 26.5363 21.0835H13.3272C13.0668 21.0835 12.8487 21.1709 12.6727 21.3457C12.4967 21.5204 12.4099 21.7386 12.4123 22.0002C12.4148 22.2617 12.5022 22.4799 12.6745 22.6547C12.8468 22.8294 13.065 22.9168 13.329 22.9168Z" fill="white"/>
</g>
</svg>
