<svg width="44" height="44" viewBox="0 0 44 44" fill="none" xmlns="http://www.w3.org/2000/svg">
<g id="icon">
<path id="Vector" d="M21.9997 16.2891C20.6039 16.2891 19.4208 15.8038 18.4503 14.8334C17.4787 13.8617 16.9928 12.678 16.9928 11.2822C16.9928 9.88645 17.4781 8.70273 18.4485 7.73106C19.4189 6.75939 20.6027 6.27417 21.9997 6.27539C23.3967 6.27662 24.5804 6.76184 25.5508 7.73106C26.5213 8.70028 27.0065 9.884 27.0065 11.2822C27.0065 12.6804 26.5213 13.8636 25.5508 14.8316C24.5804 15.7996 23.3967 16.2854 21.9997 16.2891ZM21.9997 14.4557C22.8809 14.4557 23.6301 14.1477 24.2473 13.5317C24.8646 12.9157 25.1732 12.1665 25.1732 11.2841C25.1732 10.4016 24.8646 9.65239 24.2473 9.03639C23.6301 8.42039 22.8809 8.11117 21.9997 8.10873C21.1184 8.10628 20.3692 8.41489 19.752 9.03456C19.1348 9.65423 18.8262 10.4034 18.8262 11.2822C18.8262 12.161 19.1348 12.9102 19.752 13.5299C20.3692 14.1496 21.1184 14.4582 21.9997 14.4557ZM21.9997 37.1597L11.9878 27.1479C11.5173 26.6773 11.1647 26.1365 10.93 25.5254C10.6953 24.9143 10.5774 24.2518 10.5762 23.5381C10.5762 22.1349 11.0589 20.9518 12.0245 19.9887C12.9901 19.0256 14.1762 18.5447 15.583 18.5459C16.2674 18.5459 16.8993 18.6724 17.4787 18.9254C18.058 19.1796 18.5946 19.5536 19.0883 20.0474L21.9997 22.9587L24.9128 20.0474C25.3822 19.5768 25.9144 19.2089 26.5097 18.9437C27.1049 18.6785 27.7453 18.5459 28.431 18.5459C29.8243 18.5459 31.005 19.0274 31.973 19.9906C32.9386 20.9537 33.4213 22.1362 33.4213 23.5381C33.4213 24.2518 33.3046 24.9143 33.0712 25.5254C32.8377 26.1365 32.4845 26.6773 32.0115 27.1479L21.9997 37.1597ZM21.9997 34.5436L30.6933 25.8499C31.016 25.5285 31.2458 25.174 31.3827 24.7866C31.5208 24.4003 31.5898 23.9946 31.5898 23.5692C31.5898 22.7186 31.2831 21.9742 30.6695 21.3362C30.0559 20.6982 29.3037 20.3792 28.4127 20.3792C28.002 20.3792 27.6274 20.4428 27.2888 20.5699C26.9503 20.697 26.6209 20.9243 26.3007 21.2519L21.9997 25.5529L17.7683 21.3234C17.5459 21.0863 17.2587 20.8693 16.9067 20.6726C16.5522 20.477 16.1159 20.3792 15.5977 20.3792C14.6993 20.3792 13.9434 20.6952 13.3298 21.3271C12.7163 21.959 12.4101 22.6966 12.4113 23.5399C12.4113 23.9616 12.4816 24.3679 12.6222 24.7591C12.7639 25.1502 12.9925 25.5065 13.3078 25.8279L21.9997 34.5436Z" fill="white"/>
</g>
</svg>
