<svg width="44" height="44" viewBox="0 0 44 44" fill="none" xmlns="http://www.w3.org/2000/svg">
<g id="icon">
<path id="Vector" d="M9.16732 31.1668V34.8335V9.16683V31.1668ZM10.2967 36.6668C9.47532 36.6668 8.77621 36.3784 8.19932 35.8015C7.62243 35.2246 7.33398 34.5261 7.33398 33.706V10.2943C7.33398 9.47544 7.62243 8.77694 8.19932 8.19883C8.77621 7.62194 9.47532 7.3335 10.2967 7.3335H33.7065C34.5254 7.3335 35.2239 7.62194 35.802 8.19883C36.3789 8.77572 36.6673 9.47483 36.6673 10.2962V15.6898H34.834V10.2962C34.834 9.96616 34.7283 9.69544 34.5168 9.484C34.3054 9.27255 34.0353 9.16683 33.7065 9.16683H10.2948C9.96604 9.16683 9.69593 9.27255 9.48448 9.484C9.27304 9.69544 9.16732 9.96616 9.16732 10.2962V33.706C9.16732 34.0348 9.27304 34.3049 9.48448 34.5163C9.69593 34.7278 9.96665 34.8335 10.2967 34.8335H33.7065C34.0353 34.8335 34.3054 34.7278 34.5168 34.5163C34.7283 34.3049 34.834 34.0348 34.834 33.706V28.3105H36.6673V33.706C36.6673 34.5249 36.3789 35.2234 35.802 35.8015C35.2251 36.3784 34.5266 36.6668 33.7065 36.6668H10.2967ZM24.9633 29.3335C24.142 29.3335 23.4429 29.0451 22.866 28.4682C22.2891 27.8913 22.0007 27.1928 22.0007 26.3727V17.6277C22.0007 16.8088 22.2891 16.1103 22.866 15.5322C23.4429 14.9553 24.142 14.6668 24.9633 14.6668H35.5398C36.3587 14.6668 37.0572 14.9553 37.6353 15.5322C38.2122 16.1091 38.5006 16.8082 38.5006 17.6295V26.3727C38.5006 27.1916 38.2122 27.8901 37.6353 28.4682C37.0584 29.0451 36.3599 29.3335 35.5398 29.3335H24.9633ZM35.5398 27.5002C35.8686 27.5002 36.1387 27.3944 36.3501 27.183C36.5616 26.9716 36.6673 26.7014 36.6673 26.3727V17.6277C36.6673 17.2989 36.5616 17.0288 36.3501 16.8173C36.1387 16.6059 35.8686 16.5002 35.5398 16.5002H24.9615C24.6327 16.5002 24.3626 16.6059 24.1512 16.8173C23.9397 17.0288 23.834 17.2995 23.834 17.6295V26.3727C23.834 26.7014 23.9397 26.9716 24.1512 27.183C24.3626 27.3944 24.6333 27.5002 24.9633 27.5002H35.5398ZM29.334 24.7502C30.0979 24.7502 30.7475 24.4831 31.2828 23.949C31.8181 23.4149 32.0852 22.7653 32.084 22.0002C32.0828 21.2351 31.8157 20.5861 31.2828 20.0532C30.7499 19.5203 30.1003 19.2526 29.334 19.2502C28.5677 19.2477 27.9186 19.5154 27.387 20.0532C26.8553 20.5909 26.5877 21.2399 26.584 22.0002C26.5803 22.7604 26.848 23.41 27.387 23.949C27.926 24.488 28.575 24.7551 29.334 24.7502Z" fill="white"/>
</g>
</svg>
