<svg width="44" height="44" viewBox="0 0 44 44" fill="none" xmlns="http://www.w3.org/2000/svg">
<g id="icon">
<path id="Vector" d="M11.9167 24.75H24.75V22.9167H11.9167V24.75ZM11.9167 19.25H32.0833V17.4167H11.9167V19.25ZM11.9167 13.75H32.0833V11.9167H11.9167V13.75ZM5.5 36.8078V8.46267C5.5 7.61811 5.78294 6.9135 6.34883 6.34883C6.91472 5.78417 7.61872 5.50122 8.46083 5.5H35.5392C36.3825 5.5 37.0865 5.78294 37.6512 6.34883C38.2158 6.91472 38.4988 7.61933 38.5 8.46267V28.2058C38.5 29.0492 38.2171 29.7538 37.6512 30.3197C37.0853 30.8856 36.3813 31.1679 35.5392 31.1667H11.1412L5.5 36.8078ZM10.3583 29.3333H35.5392C35.8203 29.3333 36.0788 29.216 36.3147 28.9813C36.5506 28.7467 36.6679 28.4882 36.6667 28.2058V8.46083C36.6667 8.17972 36.5493 7.92122 36.3147 7.68533C36.08 7.44944 35.8215 7.33211 35.5392 7.33333H8.46083C8.17972 7.33333 7.92122 7.45067 7.68533 7.68533C7.44944 7.92 7.33211 8.1785 7.33333 8.46083V32.3492L10.3583 29.3333Z" fill="white"/>
</g>
</svg>
