<svg width="44" height="44" viewBox="0 0 44 44" fill="none" xmlns="http://www.w3.org/2000/svg">
<g id="icon">
<path id="Vector" d="M15.7667 27.4633C16.2886 28.7198 16.9883 29.6988 17.8658 30.4003C18.7434 31.1019 19.8067 31.5969 21.0558 31.8853V33.2292C21.0558 33.4687 21.1457 33.6783 21.3253 33.858C21.505 34.0377 21.7146 34.1281 21.9542 34.1293C22.1937 34.1306 22.4033 34.0401 22.583 33.858C22.7627 33.6759 22.8525 33.4663 22.8525 33.2292V31.977C24.1688 31.867 25.4302 31.3946 26.6365 30.5598C27.8416 29.7263 28.4442 28.4313 28.4442 26.675C28.4442 25.3917 28.0543 24.2978 27.2745 23.3933C26.4935 22.4889 25.003 21.6394 22.803 20.845C20.7814 20.1386 19.4902 19.5329 18.9292 19.0282C18.3682 18.5234 18.0871 17.8029 18.0858 16.8667C18.0846 15.9304 18.4494 15.1513 19.1803 14.5292C19.9112 13.9071 20.8817 13.5954 22.0917 13.5942C23.0218 13.5942 23.7979 13.8081 24.42 14.2358C25.0421 14.6636 25.5444 15.2044 25.927 15.8583L27.522 15.2313C27.0918 14.3501 26.4611 13.6119 25.63 13.0167C24.7989 12.4214 23.9042 12.0902 22.946 12.023V10.7708C22.946 10.5313 22.8556 10.3217 22.6747 10.142C22.495 9.96111 22.2854 9.87067 22.0458 9.87067C21.8063 9.87067 21.5967 9.96111 21.417 10.142C21.2373 10.3229 21.1475 10.5325 21.1475 10.7708V12.023C19.5488 12.2882 18.3388 12.8841 17.5175 13.8105C16.6962 14.7369 16.2873 15.7557 16.291 16.8667C16.291 18.1854 16.7053 19.2408 17.534 20.0328C18.3627 20.8248 19.7603 21.5765 21.7268 22.2878C23.6995 23.0151 25.0244 23.6714 25.7015 24.2568C26.3786 24.8423 26.7178 25.6483 26.719 26.675C26.719 27.9657 26.2484 28.8946 25.3073 29.4617C24.3662 30.03 23.3622 30.3142 22.2952 30.3142C21.2282 30.3142 20.2693 30.0068 19.4187 29.392C18.568 28.7772 17.8897 27.9021 17.3837 26.7667L15.7667 27.4633ZM22.0055 38.5C19.7248 38.5 17.5798 38.0673 15.5705 37.202C13.5624 36.3354 11.8152 35.1597 10.329 33.6747C8.84278 32.1897 7.66639 30.4443 6.79983 28.4387C5.93328 26.433 5.5 24.2886 5.5 22.0055C5.5 19.7224 5.93328 17.5774 6.79983 15.5705C7.66517 13.5624 8.83911 11.8152 10.3217 10.329C11.8042 8.84278 13.5502 7.66639 15.5595 6.79983C17.5688 5.93328 19.7138 5.5 21.9945 5.5C24.2752 5.5 26.4202 5.93328 28.4295 6.79983C30.4376 7.66517 32.1848 8.83972 33.671 10.3235C35.1572 11.8073 36.3336 13.5532 37.2002 15.5613C38.0667 17.5694 38.5 19.7138 38.5 21.9945C38.5 24.2752 38.0673 26.4202 37.202 28.4295C36.3367 30.4388 35.1609 32.186 33.6747 33.671C32.1884 35.156 30.4431 36.3324 28.4387 37.2002C26.4342 38.0679 24.2898 38.5012 22.0055 38.5ZM22 36.6667C26.0944 36.6667 29.5625 35.2458 32.4042 32.4042C35.2458 29.5625 36.6667 26.0944 36.6667 22C36.6667 17.9056 35.2458 14.4375 32.4042 11.5958C29.5625 8.75417 26.0944 7.33333 22 7.33333C17.9056 7.33333 14.4375 8.75417 11.5958 11.5958C8.75417 14.4375 7.33333 17.9056 7.33333 22C7.33333 26.0944 8.75417 29.5625 11.5958 32.4042C14.4375 35.2458 17.9056 36.6667 22 36.6667Z" fill="white"/>
</g>
</svg>
