<svg width="44" height="44" viewBox="0 0 44 44" fill="none" xmlns="http://www.w3.org/2000/svg">
<g id="icon">
<path id="Vector" d="M7.33334 16.1478H36.6667V12.1292C36.6667 11.8468 36.5493 11.5877 36.3147 11.3518C36.08 11.1159 35.8215 10.9986 35.5392 10.9998H8.46084C8.17973 10.9998 7.92123 11.1172 7.68534 11.3518C7.44945 11.5865 7.33212 11.8456 7.33334 12.1292V16.1478ZM5.5 12.1292C5.5 11.2846 5.78295 10.58 6.34884 10.0153C6.91473 9.45067 7.61873 9.16773 8.46084 9.1665H35.5392C36.3825 9.1665 37.0865 9.44945 37.6512 10.0153C38.2158 10.5812 38.4988 11.2858 38.5 12.1292V19.039C38.5 19.4643 38.3594 19.8176 38.0783 20.0987C37.7972 20.3798 37.444 20.5203 37.0187 20.5203H7.33334V31.8723C7.33334 32.1534 7.45067 32.4119 7.68534 32.6478C7.92 32.8837 8.1785 33.0011 8.46084 32.9998H16.0838C16.3454 32.9998 16.5636 33.0872 16.7383 33.262C16.9131 33.4368 17.0005 33.6549 17.0005 33.9165C17.0005 34.1781 16.9131 34.3962 16.7383 34.571C16.5636 34.7458 16.3454 34.8332 16.0838 34.8332H8.46084C7.6175 34.8332 6.91289 34.5508 6.347 33.9862C5.78111 33.4215 5.49878 32.7163 5.5 31.8705V12.1292ZM7.33334 12.1292V32.9998V25.8022V28.8712V10.9998V12.1292ZM26.8437 37.0625C26.6701 37.0625 26.4941 37.0283 26.3157 36.9598C26.1372 36.8914 25.9679 36.7771 25.8078 36.617L20.9715 31.7807C20.7992 31.6096 20.7057 31.4006 20.691 31.1537C20.6763 30.9068 20.7698 30.6831 20.9715 30.4827C21.1658 30.2871 21.3797 30.1893 21.6132 30.1893C21.8478 30.1893 22.066 30.2871 22.2677 30.4827L26.8437 35.0385L36.6153 25.2668C36.7926 25.0896 37.004 24.9967 37.2497 24.9882C37.4953 24.9796 37.7196 25.0768 37.9225 25.2797C38.1181 25.4813 38.2171 25.6971 38.2195 25.9268C38.2232 26.1578 38.1242 26.3742 37.9225 26.5758L27.8813 36.617C27.7212 36.7759 27.5574 36.8902 27.39 36.9598C27.2238 37.0271 27.0417 37.0625 26.8437 37.0625Z" fill="#EE8206"/>
</g>
</svg>
