<svg width="44" height="44" viewBox="0 0 44 44" fill="none" xmlns="http://www.w3.org/2000/svg">
<g id="icon">
<path id="Vector" d="M18.5805 38.5L17.9168 33.198C17.3314 33.0208 16.6989 32.7433 16.0193 32.3657C15.3385 31.9868 14.7598 31.581 14.2832 31.1483L9.39182 33.2292L5.97266 27.2708L10.2003 24.0827C10.1453 23.7527 10.1007 23.4117 10.0665 23.0597C10.0298 22.7077 10.0115 22.3661 10.0115 22.0348C10.0115 21.7268 10.0298 21.4029 10.0665 21.0632C10.1007 20.7234 10.1453 20.3408 10.2003 19.9155L5.97266 16.731L9.39182 10.8423L14.2465 12.8883C14.794 12.4324 15.3868 12.0212 16.0248 11.6545C16.6604 11.2878 17.2794 11.0043 17.882 10.8038L18.5787 5.5H25.4207L26.0825 10.8387C26.7853 11.0856 27.4062 11.3685 27.9452 11.6875C28.4842 12.0065 29.0397 12.4062 29.6117 12.8865L34.6075 10.8423L38.0267 16.7292L33.6597 20.0218C33.7599 20.4007 33.8161 20.7484 33.8283 21.065C33.8405 21.3816 33.8467 21.6932 33.8467 22C33.8467 22.2848 33.8344 22.5848 33.81 22.9002C33.7868 23.2167 33.733 23.5993 33.6487 24.0478L37.946 27.2708L34.5268 33.2292L29.6117 31.1135C29.0409 31.5938 28.4664 32.0051 27.8883 32.3473C27.3102 32.6896 26.7083 32.9615 26.0825 33.1632L25.4207 38.5H18.5805ZM20.1663 36.6667H23.7523L24.4288 31.702C25.3528 31.4576 26.1839 31.1221 26.9222 30.6955C27.6628 30.2689 28.4157 29.6847 29.1808 28.9428L33.755 30.8917L35.5773 27.775L31.5642 24.761C31.7169 24.2391 31.8184 23.7588 31.8685 23.32C31.9174 22.8824 31.9418 22.4424 31.9418 22C31.9418 21.5356 31.9174 21.0956 31.8685 20.68C31.8196 20.2644 31.7182 19.8079 31.5642 19.3105L35.647 16.225L33.8247 13.1083L29.146 15.07C28.5911 14.4601 27.862 13.8887 26.9588 13.3558C26.0544 12.8242 25.1988 12.4716 24.3922 12.298L23.833 7.33333H20.1773L19.6053 12.2632C18.6813 12.4599 17.8319 12.7777 17.057 13.2165C16.2833 13.6541 15.5133 14.256 14.747 15.0223L10.1747 13.1083L8.35232 16.225L12.3288 19.195C12.176 19.6057 12.0691 20.0518 12.008 20.5333C11.9469 21.0149 11.9163 21.516 11.9163 22.0367C11.9163 22.5011 11.9469 22.9625 12.008 23.4208C12.0691 23.8792 12.1644 24.3253 12.294 24.7592L8.35232 27.775L10.1747 30.8917L14.7122 28.9667C15.432 29.6927 16.1788 30.2751 16.9525 30.7138C17.7274 31.1526 18.6 31.4942 19.5705 31.7387L20.1663 36.6667ZM21.9502 26.5833C23.2286 26.5833 24.3121 26.1391 25.2007 25.2505C26.0892 24.3619 26.5335 23.2784 26.5335 22C26.5335 20.7216 26.0892 19.6381 25.2007 18.7495C24.3121 17.8609 23.2286 17.4167 21.9502 17.4167C20.6644 17.4167 19.579 17.8609 18.6942 18.7495C17.8093 19.6381 17.3668 20.7216 17.3668 22C17.3668 23.2784 17.8093 24.3619 18.6942 25.2505C19.579 26.1391 20.6644 26.5833 21.9502 26.5833Z" fill="#EE8206"/>
</g>
</svg>
