<svg width="44" height="44" viewBox="0 0 44 44" fill="none" xmlns="http://www.w3.org/2000/svg">
<g id="icon">
<path id="Vector" d="M9.09689 37.5833C7.82333 37.5833 6.74105 37.1372 5.85005 36.245C4.95783 35.3552 4.51172 34.2736 4.51172 33C4.51172 32.2765 4.67061 31.5969 4.98839 30.9613C5.30616 30.3258 5.75839 29.7831 6.34505 29.3333V22.5647C6.34505 22.1455 6.48744 21.7935 6.77222 21.5087C7.057 21.2239 7.40839 21.0821 7.82639 21.0833H10.5416V12.4813C10.5416 12.0621 10.6833 11.7101 10.9669 11.4253C11.2504 11.1406 11.6024 10.9988 12.0229 11H19.7467C20.3481 11 20.8993 11.1577 21.4004 11.473C21.9015 11.7883 22.2694 12.2265 22.5041 12.7875L29.6999 29.6835C29.8588 30.0636 29.9908 30.4523 30.0959 30.8495C30.1986 31.2467 30.2499 31.658 30.2499 32.0833C30.2499 33.6209 29.7176 34.922 28.6531 35.9865C27.5885 37.0511 26.2874 37.5833 24.7499 37.5833C23.568 37.5833 22.5028 37.2491 21.5544 36.5805C20.6059 35.912 19.9417 35.024 19.5616 33.9167H13.5702C13.3612 34.9922 12.8357 35.8722 11.9936 36.5567C11.1527 37.2411 10.1871 37.5833 9.09689 37.5833ZM38.5714 35.75H33.5646C33.1441 35.75 32.7921 35.6082 32.5086 35.3247C32.225 35.0411 32.0832 34.6891 32.0832 34.2687V9.16668C32.0832 8.90635 32.1712 8.68879 32.3472 8.51401C32.5232 8.33923 32.7414 8.25123 33.0017 8.25001C33.2621 8.24879 33.4796 8.33679 33.6544 8.51401C33.8292 8.69123 33.9166 8.90879 33.9166 9.16668V33.9167H38.5714C38.8305 33.9167 39.0481 34.0047 39.2241 34.1807C39.4001 34.3567 39.4874 34.5748 39.4862 34.8352C39.485 35.0955 39.3976 35.3131 39.2241 35.4878C39.0505 35.6626 38.8342 35.75 38.5714 35.75ZM9.09505 35.75C9.85039 35.75 10.4982 35.4805 11.0384 34.9415C11.5762 34.4013 11.8451 33.7541 11.8451 33C11.8451 32.2459 11.5762 31.5987 11.0384 31.0585C10.4982 30.5195 9.85039 30.25 9.09505 30.25C8.33972 30.25 7.69316 30.5195 7.15539 31.0585C6.61761 31.5975 6.34811 32.2447 6.34689 33C6.34566 33.7553 6.61516 34.4025 7.15539 34.9415C7.69561 35.4805 8.34094 35.75 9.09505 35.75ZM24.7499 35.75C25.7484 35.75 26.6095 35.3888 27.3331 34.6665C28.0554 33.943 28.4166 33.0819 28.4166 32.0833C28.4166 31.0848 28.0554 30.2237 27.3331 29.5002C26.6107 28.7766 25.7497 28.4155 24.7499 28.4167C23.7501 28.4179 22.8891 28.7791 22.1667 29.5002C21.4444 30.2237 21.0832 31.0848 21.0832 32.0833C21.0832 33.0819 21.4444 33.943 22.1667 34.6665C22.8891 35.3901 23.7501 35.7512 24.7499 35.75ZM13.5702 32.0833H19.2609C19.2279 31.3952 19.344 30.7291 19.6092 30.085C19.8732 29.4433 20.2576 28.8872 20.7624 28.4167H16.9546L11.5921 22.9167H8.18022V28.5578C8.32077 28.5102 8.46744 28.4747 8.62022 28.4515C8.773 28.4283 8.93189 28.4167 9.09689 28.4167C10.1871 28.4167 11.1527 28.7589 11.9936 29.4433C12.8344 30.1278 13.36 31.0078 13.5702 32.0833ZM17.7374 26.5833H24.8141C25.1196 26.5833 25.4191 26.6188 25.7124 26.6897C26.0057 26.7606 26.2936 26.8663 26.5759 27.0068L20.8046 13.5043C20.7104 13.2917 20.5754 13.1267 20.3994 13.0093C20.2234 12.892 20.0181 12.8333 19.7834 12.8333H12.3749V21.0833L17.7374 26.5833ZM16.9546 28.4167L16.1076 27.5458C15.5417 26.9653 14.9306 26.3316 14.2742 25.6447C13.6179 24.9578 13.0068 24.3314 12.4409 23.7655L11.5921 22.9167L16.9546 28.4167Z" fill="#EE8206"/>
</g>
</svg>
