<svg width="164" height="64" viewBox="0 0 164 64" fill="none" xmlns="http://www.w3.org/2000/svg">
<g clip-path="url(#clip0_412_786)">
<path d="M22.0562 1.72565C29.6448 -0.880068 38.2048 -0.514354 45.5648 2.61707C39.5648 12.5485 33.3934 22.3885 27.4162 32.3314C27.7134 33.0171 28.1705 33.6228 28.5819 34.2514C34.4448 43.1885 40.2848 52.1371 46.1591 61.0742C39.8848 64.0114 32.6048 64.7085 25.8276 63.3028C19.6791 62.0228 13.9191 58.9714 9.50764 54.5828C4.1705 49.3599 0.787644 42.2742 0.136215 34.9142C-0.492356 28.1371 1.1305 21.1656 4.75336 15.3485C8.68479 9.03993 14.8791 4.0685 22.0562 1.72565ZM19.9419 12.8914C13.9076 22.7199 7.7705 32.4799 1.78193 42.3428C11.6334 42.3428 21.4848 42.2628 31.3362 42.1828C30.2505 40.5028 29.0505 38.8914 27.8848 37.2799C24.4105 37.3028 20.9476 37.2456 17.4848 37.1885C22.5248 28.8228 27.7248 20.5256 32.8448 12.2056C28.8219 12.2056 24.7991 12.1371 20.7762 12.1371C20.3191 12.0685 20.1934 12.6399 19.9534 12.9028L19.9419 12.8914Z" fill="#1D2088"/>
<path d="M49.5884 13.7028C50.6741 11.8857 51.6113 9.97709 52.8113 8.22852C53.6456 8.9028 54.5598 9.49709 55.2798 10.2971C55.7484 11.2685 54.8113 12.1028 54.3884 12.9028C50.8913 18.7085 47.4284 24.5257 43.9427 30.3314C43.4284 31.2114 42.7313 32.0228 42.4456 33.0057C42.4113 33.8171 43.0741 34.4457 43.4398 35.1199C46.8456 40.5714 50.4113 45.9314 53.7598 51.4285C54.3884 52.3771 55.0056 53.3371 55.6456 54.2742C54.8684 55.1771 54.0113 56.0228 53.0856 56.7771C52.6056 56.1942 52.1598 55.5999 51.7713 54.9599C47.497 47.9657 43.3484 40.8914 39.0856 33.8971C38.7427 33.3257 38.2513 32.6399 38.7541 32.0114C42.3541 25.9085 45.9198 19.7942 49.5656 13.7142L49.5884 13.7028Z" fill="#EE8206"/>
<path d="M53.5875 17.8858C54.7761 16.0915 55.7818 14.1601 57.1075 12.4458C57.9647 13.5429 59.7704 14.9487 58.6504 16.4458C55.3932 21.6229 52.1818 26.8229 48.9018 31.9887C48.5704 32.5829 48.0561 33.3258 48.5475 33.9772C51.7247 38.8801 55.0047 43.7258 58.2389 48.6058C58.5361 49.0629 58.8561 49.5201 59.0504 50.0344C58.6618 51.0858 57.8161 51.8972 57.0847 52.7429C55.7361 51.2801 54.9132 49.4515 53.8047 47.8287C50.8447 43.0058 47.7132 38.2744 44.8104 33.4287C44.2961 32.9029 44.8561 32.2972 45.0847 31.7829C47.919 27.1544 50.799 22.5487 53.599 17.9087L53.5875 17.8858Z" fill="#EE8206"/>
<path d="M51.5422 31.3485C54.6051 26.6743 57.2336 21.7257 60.4336 17.1428C60.9479 18.5371 62.5365 20.0685 61.6108 21.5885C59.3251 25.5314 56.6279 29.2457 54.4794 33.2571C55.2451 35.2343 56.7308 36.8685 57.8165 38.6857C59.0736 40.8 60.6051 42.7428 61.8051 44.88C61.5536 46.0457 60.8908 47.0857 60.3308 48.1371C59.7936 47.4628 59.3022 46.7543 58.8679 46.0228C56.2851 41.8057 53.5079 37.7028 50.9594 33.4514C50.3879 32.7314 51.2336 31.9885 51.5308 31.3371L51.5422 31.3485Z" fill="#EE8206"/>
<path d="M93.68 28.34H86.046C87.828 30.496 91.304 31.904 94.494 32.432L94.45 32.696C93.284 33.004 92.404 34.038 92.052 35.6C88.818 34.192 86.86 31.816 85.65 28.34H85.452V35.644C85.452 35.908 84.022 36.612 82.878 36.612H82.262V31.024C80.106 33.114 77.136 34.764 73.66 35.908L73.506 35.666C76.586 33.862 79.094 31.002 80.502 28.34H73.902L73.726 27.724H82.262V23.126H75.244L75.068 22.51H82.262V19.87L85.87 20.2V18.924H81.888V20.42C81.888 20.662 80.722 21.058 79.292 21.058H78.786V18.924H73.748L73.594 18.308H78.786V15.668L82.658 15.998C82.636 16.284 82.46 16.482 81.888 16.57V18.308H85.87V15.668L89.808 15.976C89.786 16.284 89.61 16.482 89.038 16.57V18.308H90.358L91.81 16.372C91.81 16.372 93.438 17.67 94.384 18.572C94.318 18.814 94.098 18.924 93.768 18.924H89.038V20.31C89.038 20.552 87.85 20.926 86.376 20.926H85.87V20.574C85.782 20.64 85.65 20.684 85.452 20.706V22.51H89.104L90.622 20.53C90.622 20.53 92.316 21.872 93.35 22.774C93.284 23.016 93.042 23.126 92.712 23.126H85.452V27.724H86.376C86.794 26.36 87.146 24.512 87.3 23.214L91.216 24.358C91.128 24.622 90.886 24.798 90.38 24.776C89.588 25.656 88.356 26.8 87.058 27.724H90.028L91.546 25.722C91.546 25.722 93.284 27.064 94.318 27.988C94.252 28.23 94.01 28.34 93.68 28.34ZM77.224 23.258L77.4 23.17C83.758 24.666 80.546 29.396 78.082 27.086C78.148 25.722 77.73 24.314 77.224 23.258ZM104.086 34.258H109.784V30.496H104.086V34.258ZM109.586 29.88L110.004 29.44C108.882 28.934 107.848 28.362 106.924 27.658C105.714 28.296 104.372 28.868 102.986 29.374L104.394 29.88H109.586ZM108.772 22.4H105.34C104.988 22.796 104.614 23.148 104.24 23.5C104.878 24.138 105.626 24.688 106.484 25.15C107.43 24.27 108.2 23.324 108.772 22.4ZM110.796 20.046L113.722 22.862C113.502 23.082 113.238 23.17 112.644 23.236C111.72 24.336 110.554 25.37 109.168 26.316C111.676 27.152 114.536 27.548 117.308 27.724L117.286 28.01C115.944 28.362 115.152 29.418 114.844 30.936C114.404 30.848 113.964 30.738 113.524 30.628C113.392 30.716 113.238 30.804 112.974 30.87V35.666C112.952 35.82 111.368 36.37 110.356 36.37H109.784V34.874H104.086V35.688C104.086 35.908 103.14 36.612 101.556 36.612H100.984V30.012C99.576 30.43 98.102 30.738 96.606 30.98L96.496 30.782C99.928 29.704 102.986 28.054 105.318 26.184C104.702 25.524 104.174 24.776 103.712 23.962C101.886 25.458 99.884 26.426 97.816 27.13L97.64 26.91C99.686 25.304 101.908 22.51 103.206 19.386H100.346C100.544 21.014 99.994 22.158 99.18 22.664C98.41 23.148 97.222 22.884 96.892 21.916C96.606 20.992 97.156 20.288 97.926 19.936C98.652 19.54 99.554 18.528 99.532 17.428H99.796C99.994 17.89 100.126 18.352 100.236 18.77H106C105.912 18.726 105.846 18.682 105.758 18.638C105.67 17.582 105.054 16.504 104.328 15.91L104.46 15.8C109.3 15.206 109.3 17.934 107.848 18.77H113.128L114.624 17.252L117.242 19.716C117.066 19.914 116.846 19.98 116.384 20.002C115.57 20.684 114.206 21.564 113.128 22.048L112.974 21.916C113.106 21.212 113.26 20.2 113.326 19.386H103.932L107.276 20.794C107.166 21.058 106.858 21.256 106.33 21.19C106.176 21.388 106.022 21.586 105.868 21.784H108.816L110.796 20.046ZM135.084 34.786L136.932 32.432C136.932 32.432 139 33.994 140.254 35.05C140.188 35.292 139.924 35.402 139.594 35.402H119.486L119.31 34.786H127.252V16.042L131.586 16.438C131.542 16.768 131.388 16.988 130.772 17.076V24.534H133.632L135.436 22.202C135.436 22.202 137.46 23.742 138.67 24.798C138.604 25.04 138.362 25.15 138.032 25.15H130.772V34.786H135.084ZM154.268 33.62H158.844V26.162H154.268V33.62ZM158.844 18.308H154.268V25.546H158.844V18.308ZM146.128 29.418H147.03C147.25 29.418 147.36 29.396 147.514 29.308C147.778 29.154 147.932 28.824 147.932 28.252C147.932 26.8 147.558 25.128 146.59 23.808C146.964 22.334 147.382 19.76 147.558 18.022H146.128V29.418ZM160.296 15.866L163.046 18.11C162.848 18.308 162.584 18.528 162.056 18.638V35.27C162.056 35.468 161 36.194 159.394 36.194H158.844V34.236H154.268V35.688C154.268 35.908 153.344 36.546 151.782 36.546H151.232V18.88C151.122 18.902 151.012 18.902 150.88 18.902C150 20.244 148.504 22.378 147.162 23.764C149.692 25.04 150.836 27.372 150.836 29.22C150.836 31.354 149.956 32.872 147.184 32.894C147.184 31.992 147.074 30.76 146.876 30.342C146.744 30.1 146.502 29.88 146.128 29.748V35.666C146.128 35.886 145.226 36.612 143.708 36.612H143.158V16.196L146.436 17.406H147.36L148.922 15.888L151.232 17.978V16.46L154.554 17.692H158.712L160.296 15.866Z" fill="#1D2088"/>
<path d="M87.826 42.84H89.66V50.904H93.888V52.5H87.826V42.84ZM101.233 50.624H97.9148L97.3267 52.5H95.3947L98.8248 42.84H100.323L103.767 52.5H101.821L101.233 50.624ZM100.743 49.098L99.5668 45.388L98.4048 49.098H100.743ZM108.883 48.202L107.609 49.798V52.5H105.775V42.84H107.609V47.348L110.955 42.84H113.153L110.059 46.718L113.405 52.5H111.277L108.883 48.202ZM118.352 52.584C117.316 52.584 116.509 52.3273 115.93 51.814C115.351 51.2913 115.029 50.54 114.964 49.56H116.7C116.765 50.092 116.933 50.47 117.204 50.694C117.484 50.9087 117.895 51.016 118.436 51.016C119.472 51.016 119.99 50.5913 119.99 49.742C119.99 49.3593 119.887 49.07 119.682 48.874C119.477 48.6687 119.15 48.5287 118.702 48.454L117.792 48.3C116.047 48.0107 115.174 47.1147 115.174 45.612C115.174 44.716 115.468 44.0067 116.056 43.484C116.653 42.9613 117.442 42.7 118.422 42.7C119.374 42.7 120.125 42.952 120.676 43.456C121.236 43.96 121.553 44.6693 121.628 45.584H119.864C119.836 45.1173 119.701 44.7767 119.458 44.562C119.215 44.3473 118.861 44.24 118.394 44.24C117.918 44.24 117.559 44.352 117.316 44.576C117.073 44.7907 116.952 45.0893 116.952 45.472C116.952 45.808 117.059 46.074 117.274 46.27C117.489 46.466 117.825 46.606 118.282 46.69L119.304 46.872C120.965 47.1707 121.796 48.076 121.796 49.588C121.796 50.5587 121.483 51.3007 120.858 51.814C120.242 52.3273 119.407 52.584 118.352 52.584ZM131.104 42.84V52.5H129.27V48.412H126.064V52.5H124.23V42.84H126.064V46.816H129.27V42.84H131.104ZM137.554 48.524V52.5H135.72V48.538L132.906 42.84H134.908L136.63 46.76L138.352 42.84H140.368L137.554 48.524ZM145.347 52.612C143.041 52.612 141.889 51.3287 141.889 48.762V46.55C141.889 43.9833 143.06 42.7 145.403 42.7C146.476 42.7 147.325 43.0033 147.951 43.61C148.576 44.2073 148.889 45.1873 148.889 46.55V48.762C148.889 50.1247 148.567 51.1093 147.923 51.716C147.288 52.3133 146.429 52.612 145.347 52.612ZM145.403 50.974C145.963 50.974 146.378 50.7967 146.649 50.442C146.919 50.078 147.055 49.5087 147.055 48.734V46.648C147.055 45.8267 146.919 45.234 146.649 44.87C146.378 44.4967 145.963 44.31 145.403 44.31C144.815 44.31 144.39 44.492 144.129 44.856C143.867 45.2107 143.737 45.808 143.737 46.648V48.734C143.737 49.5273 143.867 50.1013 144.129 50.456C144.39 50.8013 144.815 50.974 145.403 50.974Z" fill="#EE8206"/>
</g>
<defs>
<clipPath id="clip0_412_786">
<rect width="164" height="64" fill="white"/>
</clipPath>
</defs>
</svg>
