<svg width="164" height="64" viewBox="0 0 164 64" fill="none" xmlns="http://www.w3.org/2000/svg">
<g clip-path="url(#clip0_121_424)">
<path d="M22.057 1.72565C29.6456 -0.880068 38.2055 -0.514354 45.5655 2.61707C39.5655 12.5485 33.3941 22.3885 27.417 32.3314C27.7141 33.0171 28.1713 33.6228 28.5827 34.2514C34.4456 43.1885 40.2855 52.1371 46.1598 61.0742C39.8856 64.0114 32.6056 64.7085 25.8284 63.3028C19.6798 62.0228 13.9198 58.9714 9.50841 54.5828C4.17126 49.3599 0.788407 42.2742 0.136978 34.9142C-0.491593 28.1371 1.13126 21.1656 4.75412 15.3485C8.68555 9.03993 14.8798 4.0685 22.057 1.72565ZM19.9427 12.8914C13.9084 22.7199 7.77126 32.4799 1.78269 42.3428C11.6341 42.3428 21.4856 42.2628 31.337 42.1828C30.2513 40.5028 29.0513 38.8914 27.8856 37.2799C24.4113 37.3028 20.9484 37.2456 17.4855 37.1885C22.5256 28.8228 27.7256 20.5256 32.8456 12.2056C28.8227 12.2056 24.7998 12.1371 20.777 12.1371C20.3198 12.0685 20.1941 12.6399 19.9541 12.9028L19.9427 12.8914Z" fill="white"/>
<path d="M49.5885 13.7028C50.6743 11.8857 51.6114 9.97709 52.8114 8.22852C53.6457 8.9028 54.56 9.49709 55.28 10.2971C55.7485 11.2685 54.8114 12.1028 54.3885 12.9028C50.8914 18.7085 47.4285 24.5257 43.9428 30.3314C43.4285 31.2114 42.7314 32.0228 42.4457 33.0057C42.4114 33.8171 43.0743 34.4457 43.44 35.1199C46.8457 40.5714 50.4114 45.9314 53.76 51.4285C54.3885 52.3771 55.0057 53.3371 55.6457 54.2742C54.8685 55.1771 54.0114 56.0228 53.0857 56.7771C52.6057 56.1942 52.16 55.5999 51.7714 54.9599C47.4971 47.9657 43.3485 40.8914 39.0857 33.8971C38.7428 33.3257 38.2514 32.6399 38.7543 32.0114C42.3543 25.9085 45.92 19.7942 49.5657 13.7142L49.5885 13.7028Z" fill="white"/>
<path d="M53.5886 17.8856C54.7771 16.0913 55.7828 14.1598 57.1086 12.4456C57.9657 13.5427 59.7714 14.9484 58.6514 16.4456C55.3943 21.6227 52.1828 26.8227 48.9028 31.9884C48.5714 32.5827 48.0571 33.3256 48.5486 33.977C51.7257 38.8798 55.0057 43.7256 58.24 48.6056C58.5371 49.0627 58.8571 49.5198 59.0514 50.0341C58.6628 51.0856 57.8171 51.897 57.0857 52.7427C55.7371 51.2798 54.9143 49.4513 53.8057 47.8284C50.8457 43.0056 47.7143 38.2741 44.8114 33.4284C44.2971 32.9027 44.8571 32.297 45.0857 31.7827C47.92 27.1541 50.8 22.5484 53.6 17.9084L53.5886 17.8856Z" fill="white"/>
<path d="M51.5423 31.3485C54.6052 26.6743 57.2337 21.7257 60.4337 17.1428C60.948 18.5371 62.5366 20.0685 61.6109 21.5885C59.3252 25.5314 56.628 29.2457 54.4795 33.2571C55.2452 35.2343 56.7309 36.8685 57.8166 38.6857C59.0737 40.8 60.6052 42.7428 61.8052 44.88C61.5537 46.0457 60.8909 47.0857 60.3309 48.1371C59.7937 47.4628 59.3023 46.7543 58.868 46.0228C56.2852 41.8057 53.508 37.7028 50.9595 33.4514C50.388 32.7314 51.2337 31.9885 51.5309 31.3371L51.5423 31.3485Z" fill="white"/>
<path d="M93.68 28.34H86.046C87.828 30.496 91.304 31.904 94.494 32.432L94.45 32.696C93.284 33.004 92.404 34.038 92.052 35.6C88.818 34.192 86.86 31.816 85.65 28.34H85.452V35.644C85.452 35.908 84.022 36.612 82.878 36.612H82.262V31.024C80.106 33.114 77.136 34.764 73.66 35.908L73.506 35.666C76.586 33.862 79.094 31.002 80.502 28.34H73.902L73.726 27.724H82.262V23.126H75.244L75.068 22.51H82.262V19.87L85.87 20.2V18.924H81.888V20.42C81.888 20.662 80.722 21.058 79.292 21.058H78.786V18.924H73.748L73.594 18.308H78.786V15.668L82.658 15.998C82.636 16.284 82.46 16.482 81.888 16.57V18.308H85.87V15.668L89.808 15.976C89.786 16.284 89.61 16.482 89.038 16.57V18.308H90.358L91.81 16.372C91.81 16.372 93.438 17.67 94.384 18.572C94.318 18.814 94.098 18.924 93.768 18.924H89.038V20.31C89.038 20.552 87.85 20.926 86.376 20.926H85.87V20.574C85.782 20.64 85.65 20.684 85.452 20.706V22.51H89.104L90.622 20.53C90.622 20.53 92.316 21.872 93.35 22.774C93.284 23.016 93.042 23.126 92.712 23.126H85.452V27.724H86.376C86.794 26.36 87.146 24.512 87.3 23.214L91.216 24.358C91.128 24.622 90.886 24.798 90.38 24.776C89.588 25.656 88.356 26.8 87.058 27.724H90.028L91.546 25.722C91.546 25.722 93.284 27.064 94.318 27.988C94.252 28.23 94.01 28.34 93.68 28.34ZM77.224 23.258L77.4 23.17C83.758 24.666 80.546 29.396 78.082 27.086C78.148 25.722 77.73 24.314 77.224 23.258ZM110.862 22.73H102.766V26.976H110.862V22.73ZM116.252 30.1L116.318 33.004C117.11 33.312 117.286 33.664 117.286 34.236C117.286 35.446 116.274 36.04 112.512 36.04H110.356C107.892 36.04 107.342 35.534 107.342 33.554V27.592H106.088C105.714 32.476 103.206 35.468 96.584 36.678L96.518 36.436C100.852 34.61 102.304 31.992 102.59 28.428C102.194 28.758 101.094 29.176 100.082 29.176H99.642V20.86L102.942 22.114H105.23V19.276H97.288L97.112 18.66H105.23V15.668L109.212 15.976C109.168 16.284 109.036 16.504 108.42 16.592V18.66H112.072L113.744 16.57C113.744 16.57 115.636 17.956 116.78 18.924C116.714 19.166 116.45 19.276 116.12 19.276H108.42V22.114H110.642L112.05 20.596L114.91 22.752C114.778 22.928 114.514 23.148 114.052 23.236V28.054C114.03 28.274 112.534 28.978 111.412 28.978H110.862V27.592H110.356V27.834V32.806C110.356 33.114 110.466 33.202 111.06 33.202H112.864H114.272C114.58 33.18 114.712 33.114 114.866 32.872C115.13 32.476 115.526 31.486 116.032 30.1H116.252ZM135.084 34.786L136.932 32.432C136.932 32.432 139 33.994 140.254 35.05C140.188 35.292 139.924 35.402 139.594 35.402H119.486L119.31 34.786H127.252V16.042L131.586 16.438C131.542 16.768 131.388 16.988 130.772 17.076V24.534H133.632L135.436 22.202C135.436 22.202 137.46 23.742 138.67 24.798C138.604 25.04 138.362 25.15 138.032 25.15H130.772V34.786H135.084ZM154.268 33.62H158.844V26.162H154.268V33.62ZM158.844 18.308H154.268V25.546H158.844V18.308ZM146.128 29.418H147.03C147.25 29.418 147.36 29.396 147.514 29.308C147.778 29.154 147.932 28.824 147.932 28.252C147.932 26.8 147.558 25.128 146.59 23.808C146.964 22.334 147.382 19.76 147.558 18.022H146.128V29.418ZM160.296 15.866L163.046 18.11C162.848 18.308 162.584 18.528 162.056 18.638V35.27C162.056 35.468 161 36.194 159.394 36.194H158.844V34.236H154.268V35.688C154.268 35.908 153.344 36.546 151.782 36.546H151.232V18.88C151.122 18.902 151.012 18.902 150.88 18.902C150 20.244 148.504 22.378 147.162 23.764C149.692 25.04 150.836 27.372 150.836 29.22C150.836 31.354 149.956 32.872 147.184 32.894C147.184 31.992 147.074 30.76 146.876 30.342C146.744 30.1 146.502 29.88 146.128 29.748V35.666C146.128 35.886 145.226 36.612 143.708 36.612H143.158V16.196L146.436 17.406H147.36L148.922 15.888L151.232 17.978V16.46L154.554 17.692H158.712L160.296 15.866Z" fill="white"/>
<path d="M87.826 42.84H89.66V50.904H93.888V52.5H87.826V42.84ZM101.233 50.624H97.9148L97.3267 52.5H95.3947L98.8248 42.84H100.323L103.767 52.5H101.821L101.233 50.624ZM100.743 49.098L99.5668 45.388L98.4048 49.098H100.743ZM108.883 48.202L107.609 49.798V52.5H105.775V42.84H107.609V47.348L110.955 42.84H113.153L110.059 46.718L113.405 52.5H111.277L108.883 48.202ZM118.352 52.584C117.316 52.584 116.509 52.3273 115.93 51.814C115.351 51.2913 115.029 50.54 114.964 49.56H116.7C116.765 50.092 116.933 50.47 117.204 50.694C117.484 50.9087 117.895 51.016 118.436 51.016C119.472 51.016 119.99 50.5913 119.99 49.742C119.99 49.3593 119.887 49.07 119.682 48.874C119.477 48.6687 119.15 48.5287 118.702 48.454L117.792 48.3C116.047 48.0107 115.174 47.1147 115.174 45.612C115.174 44.716 115.468 44.0067 116.056 43.484C116.653 42.9613 117.442 42.7 118.422 42.7C119.374 42.7 120.125 42.952 120.676 43.456C121.236 43.96 121.553 44.6693 121.628 45.584H119.864C119.836 45.1173 119.701 44.7767 119.458 44.562C119.215 44.3473 118.861 44.24 118.394 44.24C117.918 44.24 117.559 44.352 117.316 44.576C117.073 44.7907 116.952 45.0893 116.952 45.472C116.952 45.808 117.059 46.074 117.274 46.27C117.489 46.466 117.825 46.606 118.282 46.69L119.304 46.872C120.965 47.1707 121.796 48.076 121.796 49.588C121.796 50.5587 121.483 51.3007 120.858 51.814C120.242 52.3273 119.407 52.584 118.352 52.584ZM131.104 42.84V52.5H129.27V48.412H126.064V52.5H124.23V42.84H126.064V46.816H129.27V42.84H131.104ZM137.554 48.524V52.5H135.72V48.538L132.906 42.84H134.908L136.63 46.76L138.352 42.84H140.368L137.554 48.524ZM145.347 52.612C143.041 52.612 141.889 51.3287 141.889 48.762V46.55C141.889 43.9833 143.06 42.7 145.403 42.7C146.476 42.7 147.325 43.0033 147.951 43.61C148.576 44.2073 148.889 45.1873 148.889 46.55V48.762C148.889 50.1247 148.567 51.1093 147.923 51.716C147.288 52.3133 146.429 52.612 145.347 52.612ZM145.403 50.974C145.963 50.974 146.378 50.7967 146.649 50.442C146.919 50.078 147.055 49.5087 147.055 48.734V46.648C147.055 45.8267 146.919 45.234 146.649 44.87C146.378 44.4967 145.963 44.31 145.403 44.31C144.815 44.31 144.39 44.492 144.129 44.856C143.867 45.2107 143.737 45.808 143.737 46.648V48.734C143.737 49.5273 143.867 50.1013 144.129 50.456C144.39 50.8013 144.815 50.974 145.403 50.974Z" fill="white"/>
</g>
<defs>
<clipPath id="clip0_121_424">
<rect width="164" height="64" fill="white"/>
</clipPath>
</defs>
</svg>
