<svg width="53" height="52" viewBox="0 0 53 52" fill="none" xmlns="http://www.w3.org/2000/svg">
<g id="&#229;&#136;&#182;&#228;&#189;&#156;&#229;&#183;&#165;&#232;&#137;&#186;">
<path id="Vector" d="M26.25 30.3333C27.472 30.3333 28.4997 29.9166 29.3332 29.0832C30.1666 28.2497 30.5833 27.222 30.5833 26C30.5833 24.778 30.1666 23.7503 29.3332 22.9168C28.4997 22.0834 27.472 21.6667 26.25 21.6667C25.028 21.6667 24.0003 22.0834 23.1668 22.9168C22.3334 23.7503 21.9167 24.778 21.9167 26C21.9167 27.222 22.3334 28.2497 23.1668 29.0832C24.0003 29.9166 25.028 30.3333 26.25 30.3333ZM26.2565 45.5C23.5597 45.5 21.0247 44.9887 18.6515 43.966C16.2783 42.9419 14.2134 41.5523 12.457 39.7973C10.7006 38.0423 9.31028 35.9797 8.28617 33.6093C7.26206 31.239 6.75 28.7047 6.75 26.0065C6.75 23.3083 7.26206 20.7733 8.28617 18.4015C9.30883 16.0283 10.6962 13.9634 12.4483 12.207C14.2004 10.4506 16.2638 9.06028 18.6385 8.03617C21.0132 7.01206 23.5482 6.5 26.2435 6.5C28.9388 6.5 31.4738 7.01206 33.8485 8.03617C36.2217 9.05883 38.2866 10.4469 40.043 12.2005C41.7994 13.9541 43.1897 16.0174 44.2138 18.3907C45.2379 20.7639 45.75 23.2982 45.75 25.9935C45.75 28.6888 45.2387 31.2238 44.216 33.5985C43.1933 35.9732 41.8038 38.038 40.0473 39.793C38.2909 41.548 36.2282 42.9383 33.8593 43.9638C31.4904 44.9894 28.9562 45.5014 26.2565 45.5ZM26.25 43.3333C31.0889 43.3333 35.1875 41.6542 38.5458 38.2958C41.9042 34.9375 43.5833 30.8389 43.5833 26C43.5833 21.1611 41.9042 17.0625 38.5458 13.7042C35.1875 10.3458 31.0889 8.66667 26.25 8.66667C21.4111 8.66667 17.3125 10.3458 13.9542 13.7042C10.5958 17.0625 8.91667 21.1611 8.91667 26C8.91667 30.8389 10.5958 34.9375 13.9542 38.2958C17.3125 41.6542 21.4111 43.3333 26.25 43.3333Z" fill="#EE8206"/>
</g>
</svg>
