<svg width="53" height="52" viewBox="0 0 53 52" fill="none" xmlns="http://www.w3.org/2000/svg">
<g id="&#229;&#136;&#182;&#228;&#189;&#156;&#229;&#183;&#165;&#232;&#137;&#186;">
<path id="Vector" d="M15.916 44.4166C13.2236 44.4166 10.9255 43.4647 9.02168 41.561C7.1179 39.6572 6.16602 37.3591 6.16602 34.6666C6.16602 32.8668 6.60513 31.2288 7.48335 29.7526C8.36157 28.2764 9.5294 27.11 10.9868 26.2535C11.3841 26.0151 11.7632 25.9963 12.1243 26.1971C12.4855 26.3993 12.666 26.7309 12.666 27.1916C12.666 27.3664 12.6198 27.5397 12.5273 27.7116C12.4335 27.885 12.3114 28.0157 12.1612 28.1038C11.0403 28.7567 10.1216 29.6652 9.40518 30.8295C8.68874 31.9937 8.33124 33.2727 8.33268 34.6666C8.33268 36.7495 9.07585 38.5341 10.5622 40.0205C12.0485 41.5068 13.8331 42.25 15.916 42.25C17.944 42.25 19.6875 41.5559 21.1463 40.1678C22.6038 38.7782 23.3881 37.0832 23.4993 35.0826C23.5282 34.6348 23.672 34.2737 23.9305 33.9993C24.1905 33.722 24.53 33.5833 24.9488 33.5833H35.1863C35.3915 33.1196 35.7092 32.7397 36.1397 32.4436C36.5687 32.1475 37.0497 31.9995 37.5827 31.9995C38.3193 31.9995 38.9477 32.2595 39.4677 32.7795C39.9877 33.3009 40.2477 33.93 40.2477 34.6666C40.2477 35.4033 39.9877 36.0316 39.4677 36.5516C38.9477 37.0716 38.3193 37.3316 37.5827 37.3316C37.0222 37.3316 36.534 37.1915 36.118 36.9113C35.702 36.6282 35.3915 36.2411 35.1863 35.75H25.6162C25.2767 38.4077 24.1645 40.5166 22.2795 42.0766C20.3945 43.6366 18.2733 44.4166 15.916 44.4166ZM15.916 37.3316C15.1793 37.3316 14.551 37.0716 14.031 36.5516C13.511 36.0316 13.251 35.4033 13.251 34.6666C13.251 33.9271 13.524 33.2828 14.07 32.734C14.6175 32.1836 15.3353 31.9568 16.2237 32.0536L21.7747 22.8128C20.5613 21.8652 19.6427 20.7285 19.0187 19.4025C18.3947 18.0765 18.0827 16.6645 18.0827 15.1666C18.0827 12.4742 19.0346 10.1761 20.9383 8.27229C22.8421 6.36852 25.1402 5.41663 27.8327 5.41663C30.3316 5.41663 32.4917 6.23996 34.3132 7.88663C36.1346 9.53329 37.1855 11.557 37.4657 13.9576C37.535 14.2826 37.457 14.5657 37.2317 14.807C37.0078 15.0467 36.729 15.1666 36.3953 15.1666C36.1483 15.1666 35.9208 15.0713 35.7128 14.8806C35.5048 14.69 35.3712 14.4668 35.312 14.2111C35.0809 12.3391 34.2605 10.7668 32.8507 9.49429C31.438 8.22029 29.7653 7.58329 27.8327 7.58329C25.7498 7.58329 23.9652 8.32646 22.4788 9.81279C20.9925 11.2991 20.2493 13.0837 20.2493 15.1666C20.2493 16.4421 20.5332 17.6106 21.1008 18.6723C21.6685 19.734 22.4637 20.6375 23.4863 21.3828C23.8258 21.6168 24.0446 21.9223 24.1428 22.2993C24.2425 22.6777 24.1934 23.028 23.9955 23.3501L18.087 33.1911C18.243 33.3991 18.3643 33.631 18.451 33.8866C18.5377 34.1423 18.581 34.4023 18.581 34.6666C18.581 35.4033 18.321 36.0316 17.801 36.5516C17.281 37.0716 16.6527 37.3316 15.916 37.3316ZM37.5827 44.4166C36.56 44.4166 35.5922 44.2715 34.6793 43.9811C33.7665 43.6908 32.9034 43.264 32.0902 42.7006C31.615 42.3814 31.4214 41.9625 31.5095 41.444C31.5962 40.9254 31.9385 40.6661 32.5365 40.6661C32.6896 40.6661 32.8398 40.7022 32.9872 40.7745C33.1345 40.8467 33.2703 40.9232 33.3945 41.0041C33.9752 41.3956 34.6273 41.7011 35.351 41.9206C36.0747 42.1402 36.8186 42.25 37.5827 42.25C39.6656 42.25 41.4502 41.5068 42.9365 40.0205C44.4228 38.5341 45.166 36.7495 45.166 34.6666C45.166 32.5837 44.4228 30.7991 42.9365 29.3128C41.4502 27.8265 39.6656 27.0833 37.5827 27.0833C37.2216 27.0833 36.8785 27.1107 36.5535 27.1656C36.2285 27.2205 35.9035 27.2877 35.5785 27.3671C35.1668 27.4913 34.7638 27.4791 34.3695 27.3303C33.9752 27.1815 33.6791 26.9504 33.4812 26.637L28.1533 17.7796C27.395 17.8851 26.7075 17.6836 26.0907 17.1751C25.4739 16.6667 25.1662 15.9972 25.1677 15.1666C25.1677 14.43 25.4277 13.8016 25.9477 13.2816C26.4706 12.7616 27.0996 12.5016 27.8348 12.5016C28.5701 12.5016 29.1984 12.7616 29.7198 13.2816C30.2413 13.8016 30.5013 14.43 30.4998 15.1666C30.4998 15.431 30.4587 15.6888 30.3763 15.9401C30.294 16.1915 30.1748 16.4074 30.0188 16.588L35.1473 25.2048C35.52 25.1326 35.9028 25.0661 36.2957 25.0055C36.6915 24.9462 37.1212 24.9166 37.5848 24.9166C40.2773 24.9166 42.5754 25.8685 44.4792 27.7723C46.383 29.6761 47.3341 31.9742 47.3327 34.6666C47.3312 37.3591 46.3793 39.6572 44.477 41.561C42.5747 43.4647 40.2766 44.4166 37.5827 44.4166Z" fill="#42454B"/>
</g>
</svg>
