<svg width="53" height="52" viewBox="0 0 53 52" fill="none" xmlns="http://www.w3.org/2000/svg">
<g id="&#229;&#136;&#182;&#228;&#189;&#156;&#229;&#183;&#165;&#232;&#137;&#186;">
<path id="Vector" d="M6.75 43.3334V28.1667H18.0817C18.5554 30.0835 19.5492 31.6464 21.063 32.8554C22.5768 34.0644 24.3058 34.6681 26.25 34.6667C28.2506 34.6667 30.0077 34.0629 31.5215 32.8554C33.0353 31.6464 34.0002 30.0835 34.4162 28.1667H45.75V43.3334H6.75ZM8.91667 41.1667H43.5833V30.3334H36.2167C35.2864 32.3195 33.9344 33.8997 32.1607 35.074C30.3869 36.2469 28.4167 36.8334 26.25 36.8334C24.0833 36.8334 22.1131 36.2469 20.3393 35.074C18.5656 33.9011 17.2136 32.3209 16.2833 30.3334H8.91667V41.1667ZM37.9673 23.1509L36.4333 21.6169L42.6257 15.4245L44.1575 16.9585L37.9673 23.1509ZM14.5327 23.1509L8.3425 16.9564L9.87433 15.4224L16.0667 21.6169L14.5327 23.1509ZM25.1667 17.4157V8.74902H27.3333V17.4157H25.1667Z" fill="#42454B"/>
</g>
</svg>
