<svg width="52" height="52" viewBox="0 0 52 52" fill="none" xmlns="http://www.w3.org/2000/svg">
<path d="M23.7257 32.1924L34.468 21.45L32.921 19.9052L23.7257 29.1005L19.0933 24.466L17.5463 26.013L23.7257 32.1924ZM26.0007 45.4134C21.6485 44.122 18.0324 41.4859 15.1522 37.505C12.2719 33.5241 10.8325 29.0391 10.834 24.05V12.3327L26.0007 6.66687L41.1673 12.3327V24.05C41.1673 29.0391 39.7279 33.5241 36.8492 37.505C33.9704 41.4859 30.3542 44.1242 26.0007 45.4199M26.0007 43.1189C29.7562 41.9272 32.8618 39.5439 35.3173 35.9689C37.7729 32.3939 39.0007 28.4216 39.0007 24.0522V13.8125L26.0007 8.98087L13.0007 13.8125V24.05C13.0007 28.4195 14.2284 32.3917 16.684 35.9667C19.1395 39.5417 22.2451 41.9272 26.0007 43.1189Z" fill="#42454B"/>
</svg>
