<svg width="53" height="52" viewBox="0 0 53 52" fill="none" xmlns="http://www.w3.org/2000/svg">
<g id="&#229;&#136;&#182;&#228;&#189;&#156;&#229;&#183;&#165;&#232;&#137;&#186;">
<path id="Vector" d="M21.4561 44.6702L5.41406 28.6282L19.7921 14.2632L13.5521 8.18786L15.2421 6.45886L37.4136 28.7127L21.4561 44.6702ZM21.4127 15.8839L8.61423 28.7257H34.2546L21.4127 15.8839ZM42.1109 43.3334C41.0897 43.3334 40.2389 42.9773 39.5586 42.2652C38.8768 41.5516 38.5359 40.6799 38.5359 39.65C38.5359 38.87 38.7035 38.116 39.0386 37.388C39.3737 36.66 39.8063 35.9783 40.3364 35.3427L42.1131 33.1674L43.9959 35.3427C44.5173 35.9783 44.9478 36.66 45.2872 37.388C45.6267 38.116 45.7957 38.87 45.7942 39.65C45.7942 40.6814 45.436 41.5531 44.7196 42.2652C44.0031 42.9773 43.135 43.3334 42.1109 43.3334Z" fill="#42454B"/>
</g>
</svg>
