<svg width="36" height="36" viewBox="0 0 36 36" fill="none" xmlns="http://www.w3.org/2000/svg">
<g id="material-symbols-light:add-circle-rounded">
<g id="Vector">
<path d="M17.25 18.75V24C17.25 24.213 17.322 24.391 17.466 24.534C17.61 24.678 17.7885 24.75 18.0015 24.75C18.2145 24.75 18.3925 24.678 18.5355 24.534C18.6785 24.39 18.75 24.212 18.75 24V18.75H24C24.213 18.75 24.391 18.678 24.534 18.534C24.678 18.39 24.75 18.2115 24.75 17.9985C24.75 17.7855 24.678 17.6075 24.534 17.4645C24.39 17.3215 24.212 17.25 24 17.25H18.75V12C18.75 11.787 18.678 11.609 18.534 11.466C18.39 11.322 18.212 11.25 18 11.25C17.788 11.25 17.61 11.322 17.466 11.466C17.322 11.61 17.25 11.788 17.25 12V17.25H12C11.787 17.25 11.609 17.322 11.466 17.466C11.322 17.61 11.25 17.7885 11.25 18.0015C11.25 18.2145 11.322 18.3925 11.466 18.5355C11.61 18.6785 11.788 18.75 12 18.75H17.25ZM18.0045 31.5C16.1385 31.5 14.3835 31.146 12.7395 30.438C11.0965 29.729 9.667 28.767 8.451 27.552C7.235 26.337 6.2725 24.909 5.5635 23.268C4.8545 21.627 4.5 19.8725 4.5 18.0045C4.5 16.1365 4.854 14.3815 5.562 12.7395C6.27 11.0975 7.232 9.668 8.448 8.451C9.664 7.234 11.092 6.2715 12.732 5.5635C14.372 4.8555 16.1265 4.501 17.9955 4.5C19.8645 4.499 21.6195 4.853 23.2605 5.562C24.9015 6.271 26.331 7.233 27.549 8.448C28.767 9.663 29.7295 11.091 30.4365 12.732C31.1435 14.373 31.498 16.1275 31.5 17.9955C31.502 19.8635 31.148 21.6185 30.438 23.2605C29.728 24.9025 28.766 26.332 27.552 27.549C26.338 28.766 24.91 29.7285 23.268 30.4365C21.626 31.1445 19.8715 31.499 18.0045 31.5Z" fill="#EE8206"/>
<path d="M17.25 18.75V24C17.25 24.213 17.322 24.391 17.466 24.534C17.61 24.678 17.7885 24.75 18.0015 24.75C18.2145 24.75 18.3925 24.678 18.5355 24.534C18.6785 24.39 18.75 24.212 18.75 24V18.75H24C24.213 18.75 24.391 18.678 24.534 18.534C24.678 18.39 24.75 18.2115 24.75 17.9985C24.75 17.7855 24.678 17.6075 24.534 17.4645C24.39 17.3215 24.212 17.25 24 17.25H18.75V12C18.75 11.787 18.678 11.609 18.534 11.466C18.39 11.322 18.212 11.25 18 11.25C17.788 11.25 17.61 11.322 17.466 11.466C17.322 11.61 17.25 11.788 17.25 12V17.25H12C11.787 17.25 11.609 17.322 11.466 17.466C11.322 17.61 11.25 17.7885 11.25 18.0015C11.25 18.2145 11.322 18.3925 11.466 18.5355C11.61 18.6785 11.788 18.75 12 18.75H17.25Z" fill="white"/>
</g>
</g>
</svg>
