<?xml version="1.0" standalone="no"?><!DOCTYPE svg PUBLIC "-//W3C//DTD SVG 1.1//EN" "http://www.w3.org/Graphics/SVG/1.1/DTD/svg11.dtd"><svg class="icon" width="200px" height="40.81px" viewBox="0 0 5018 1024" version="1.1" xmlns="http://www.w3.org/2000/svg"><path d="M689.58918586 890.37910124c-14.51436585-2.56607478-29.10892175-4.89158132-43.62328966-8.01898677a452.35104765 452.35104765 0 0 1-192.93682253-89.41170354 75.93980484 75.93980484 0 0 1 20.28803613 3.6085439c6.65575925 0.88208897 13.15113836 2.56607478 19.64651745 4.00949239a679.28837732 679.28837732 0 0 0 179.06397742 14.674746 549.30059946 549.30059946 0 0 0 363.34029452-159.41745798 823.22919038 823.22919038 0 0 0 145.54461082-193.97929167l8.50012529-15.15588657a313.86314653 313.86314653 0 0 1 0 31.43443034 439.44047955 439.44047955 0 0 1-56.13290726 180.74796326c-67.60005979 117.23758796-167.27606654 191.41321691-299.42896877 221.88536614a281.62681937 281.62681937 0 0 1-48.83563131 7.6180363c-1.36322748 0-2.40569664 0.48113849-2.80664507 1.92455811zM4729.15381426 750.28740036c-14.99550638 25.42018774-28.2268328 51.80265451-41.1374029 78.34550149-3.84911421 8.01898674-0.72170879 17.56158115-1.12265724 26.46265686a71.44917197 71.44917197 0 0 0 0 12.42942958c0.88208897 7.21708786-1.20284731 9.94354283-9.14164598 9.70297461-6.65575925 0-9.22183406-1.84436598-8.01898674-8.58031741a110.02050007 110.02050007 0 0 0-17.40120097-73.29353998c-9.06145591-15.23607462-16.03797349-31.51461839-25.17961951-48.91581938h17.64177125c3.84911421 0 4.65101309 2.64626486 5.93405051 5.21234168 9.14164599 18.84461855 18.28328995 37.68923916 28.0664546 57.6565149 8.01898674-16.03797349 17.00025255-30.71271953 23.49563165-46.51012269 5.3727219-13.15113836 13.07094825-19.16537893 27.10417557-16.03797351z" fill="#ffffff" /><path d="M4729.15381426 335.70577991H4727.30944824c-0.5613286-1.12265717 0 0.48113849-0.56133065-0.72170879a146.50688989 146.50688989 0 0 1 0-62.46790818h2.08493629zM4729.15381426 162.97680342h-2.08493627a6.65575925 6.65575925 0 0 1-2.16512638-4.16987458 394.69453274 394.69453274 0 0 1 0-52.44417322 6.73594935 6.73594935 0 0 1 2.08493626-4.16987255h2.16512639z" fill="#ffffff" /><path d="M4726.98868787 602.9786116l2.16512639-0.48113855v36.40619971h-2.08493627a50.19885677 50.19885677 0 0 1-0.08019012-35.92506116z" fill="#ffffff" /><path d="M4726.98868787 602.9786116v35.68449091a446.33680912 446.33680912 0 0 1-174.89410282-38.9722745c-10.50487345-4.570823-20.76917668-9.6227845-30.79290961-14.99550636a11.38696041 11.38696041 0 0 0-12.18886134 0 461.81345399 461.81345399 0 0 1-151.39847121 49.95828852 355.96282647 355.96282647 0 0 1-51.48189617 4.49063288c-6.17462077 0-7.37746805-1.92455609-7.45765615-8.01898675 0-26.46265689-0.5613286-26.54284695 24.53809878-34.16088529a440.00180818 440.00180818 0 0 0 124.69524608-60.46315996 529.65408203 529.65408203 0 0 1-65.19436314-64.15189604 469.67206055 469.67206055 0 0 1-71.36898388-115.07245956c-3.04721532-7.05670769-1.12265717-8.01898674 5.45291194-8.01898876h103.84587931a10.74544172 10.74544172 0 0 1 11.38696045 8.01898876 441.92636628 441.92636628 0 0 0 77.70398277 116.59606724c3.60854394 3.9293043 5.85386039 5.53310001 10.26430321 0.64151867a453.79446523 453.79446523 0 0 0 86.92581889-137.52562406 19.56632733 19.56632733 0 0 0 0.48113849-3.28778356H4309.27966202c-8.58031535 0-10.98601199-2.24531645-10.58506154-10.66525367 0.72170879-14.03322731 0.64151872-28.14664475 0-42.17987002 0-7.37746805 2.08493627-8.9812658 9.14164395-8.90107572h150.03524374c8.01898674 0 10.1841131-1.60379775 10.10392507-9.78316468-0.5613286-30.39196116-0.48113849-60.78392033 0-91.09568941 0-7.45765815-2.0047462-8.90107572-9.06145592-8.90107569h-150.9173327c-7.13689778 0-9.5425944-1.52360768-9.22183405-8.98126584 0.64151872-14.35398564 0.64151872-28.78816345 0-43.14214907 0-7.45765815 1.76417793-9.70297463 9.54259442-9.6227845h149.95505365c7.29727797 0 9.7831647-1.36322748 9.7029746-9.22183405-0.5613286-28.78816345 0-57.57632481 0-86.36448823 0-6.09443066 1.76417793-7.45765815 8.01898674-8.01898677 24.61828884-3.52835386 48.99600947-8.01898674 73.37372804-12.50961965 8.01898674-1.52360768 11.30677233-1.04246915 11.14639221 8.50012527-0.5613286 32.075947 0 64.15189399 0 96.22784303 0 9.14164599 1.4434176 12.26904937 11.62753065 12.18885931 51.8828446-0.5613286 104.24682978 0 155.72872596 0v60.78392031h-157.49290184c-8.01898674 0-10.10392302 1.84436598-9.94354488 9.86335475 0.48113849 30.3117711 0.48113849 60.70373023 0 91.01549932 0 7.29727797 1.84436598 8.90107572 8.9812658 8.90107571h158.45518092v63.18961698a459.80870578 459.80870578 0 0 1-119.48290438 178.58283687 212.42296183 212.42296183 0 0 1-18.76443051 16.03797351c-5.93405049 4.3302527-6.81613946 6.41518899 0 10.98601199a452.83218818 452.83218818 0 0 0 128.30379004 58.85936425c2.88683515 2.0047462 5.93405049 2.72645497 9.06145588 3.52835386zM1911.76297157 245.41198738H1650.18362013c-9.14164599 0-10.74544172 2.72645497-10.74544172 11.06620205v372.32156037c0 8.01898674-1.60379775 10.90582189-10.34449331 10.58506151-24.05696023-0.64151872-48.75543918-0.48113849-73.0529697 0-7.21708786 0-9.06145591-1.76417793-8.98126582-8.98126377V193.84990312c0-8.01898674 2.72645497-9.70297463 10.26430323-9.7029746h299.10821043c8.58031535 0 10.42468338-2.08493627 10.34449327-10.42468337-0.40094842-55.01025004 0-110.02050007-0.40095043-165.0307501 0-7.45765815 2.48588671-9.7831647 9.22183605-10.90582191 24.53810078-4.0094944 48.91581938-8.01898674 73.37372807-12.91056809 7.05670769-1.28303739 10.10392302-0.72170879 10.02373495 8.01898674-0.40094842 60.46315996 0 120.92632197-0.40095046 181.38948194 0 8.01898674 1.84436598 9.94354283 9.9435449 9.94354488h298.06574126c9.06145591 0 10.98601199 2.56607478 10.98601197 11.14639218v433.7469973c0 8.58031535-2.32550654 10.50487345-10.58506353 10.3444933q-36.56657993-0.88208897-73.13315983 0c-8.01898674 0-9.30202414-2.48588671-9.30202415-9.70297256V256.47818943c0-8.66050545-2.08493627-10.98601199-10.90582188-10.98601198-86.84562675 0.0801901-174.41296433-0.0801901-261.90011186-0.08019007zM3482.04097928 471.38703799a520.35205789 520.35205789 0 0 1-102.32227369-136.32277678 18.60405031 18.60405031 0 0 0-1.52360767 10.66525164v281.14567884c0 10.42468338-3.12740542 12.50961965-12.7501879 12.18886129-23.33525148-0.64151872-46.75069301-0.5613286-70.16613656 0-8.01898674 0-9.22183406-2.48588671-9.22183408-9.62278448V387.02729591a516.02180517 516.02180517 0 0 1-103.36474081 126.86037244 75.61904654 75.61904654 0 0 1-1.28303738-22.93430302 296.0609951 296.0609951 0 0 1 0.56132858-52.68474349c2.88683515-17.16063273 17.24082078-29.83063057 25.82113819-45.06670722a510.64908327 510.64908327 0 0 0 58.13765547-158.45517888c1.28303739-6.89632954-0.40094842-7.29727797-6.01424058-7.29727794h-69.20385753c-8.01898674 0-9.86335477-2.56607478-9.54259443-9.8633548 0.48113849-14.11341741 0.5613286-28.2268328 0-42.26006011-0.40094842-8.01898674 1.52360768-11.0662021 10.42468339-10.82563179 28.78816345 0.64151872 57.65651491 0 86.52486844 0 6.65575925 0 8.66050545-1.60379775 8.50012527-8.01898677q-0.5613286-37.84961731 0-75.77942672c0-7.05670769-1.52360768-9.22183406-8.90107573-9.14164396-28.78816345 0.48113849-57.65651491 0-86.52486639 0-8.01898674 0-10.34449329-2.48588671-10.02373498-10.34449328 0.5613286-14.35398564 0.40094842-28.78816345 0-43.14214905 0-6.49537909 1.52360768-8.90107572 8.50012731-8.90107574h283.7117536c6.65575925 0 8.9812658 1.76417793 8.82088562 8.66050545-0.48113849 14.99550638-0.48113849 30.07120084 0 45.06670516 0 6.81613946-2.24531645 8.66050545-8.82088562 8.5803174h-85.56258937c-7.21708786 0-10.02373294 1.28303739-9.86335272 9.30202412 0.5613286 24.93904924 0.48113849 49.87809842 0 74.81714762 0 6.97651759 1.4434176 9.30202414 8.82088562 9.14164399 28.86835354-0.48113849 57.73670498 0 86.60505647 0 6.65575925 0 8.90107572 1.84436598 8.74069554 8.58031739-0.48113849 15.31626471-0.40094842 30.71271953 0 46.02898422 0 6.41518899-2.08493627 8.01898674-8.01898675 8.01898674h-83.63803123c-7.6180383 0-8.58031535 1.76417793-5.69348225 8.58031539a511.05003169 511.05003169 0 0 0 92.05797048 143.45967453 16.03797349 16.03797349 0 0 1 5.53309999 11.62753068c-0.40094842 25.90132828-0.32076035 51.72246444-0.3207583 80.35024972zM527.76603124 728.79651487c-24.77866902-1.36322748-49.71771825-2.40569664-74.5765794-4.08968245-11.14639217-0.72170879-11.14639217-1.20284731-5.93404845-10.58506356a1243.42410298 1243.42410298 0 0 1 246.82441536-311.05649943 10.1841131 10.1841131 0 0 1 11.78790885-2.40569665 1241.33916467 1241.33916467 0 0 1 288.68352705 136.32277678c7.37746805 4.73120321 6.65575925 7.29727797 0.72170879 12.50961966-93.66176622 82.75594432-200.47467078 139.61056034-323.7264993 163.98828094a637.18869536 637.18869536 0 0 1-120.28480125 13.39170864c-8.09917683 0.48113849-15.71721516 1.12265717-23.49563165 1.92455607zM2778.13431108 176.44870012a606.31559567 606.31559567 0 0 1-55.57157867-48.99600948 503.03104495 503.03104495 0 0 1-48.11392048-56.13290726h92.21834864c4.570823 0 6.65575925 3.36797369 9.22183607 6.01424058a445.37453004 445.37453004 0 0 0 73.05296971 58.93955229 8.50012528 8.50012528 0 0 0 10.90582189 0.96227906 441.04427732 441.04427732 0 0 0 86.44467835-72.17088277 36.0854414 36.0854414 0 0 0 2.00474617-3.36797367H2663.22222964c-8.50012528 0-10.90582189-2.24531645-10.58506149-10.66525163 0.5613286-19.16537893 0.40094842-38.33075783 0-57.57632684 0-6.41518899 1.28303739-8.74069554 8.01898673-8.66050544h364.38276164c13.95303725 0 23.09468119 9.14164599 26.3824668 26.62303703a67.51986967 67.51986967 0 0 1-11.78791087 54.2885413 508.88490534 508.88490534 0 0 1-102.96379035 106.57233428 42.66101058 42.66101058 0 0 0-3.60854394 3.04721532c-0.40094842 0-0.40094842 1.12265717-0.80189887 2.40569662a393.73225366 393.73225366 0 0 0 73.93505866 20.04746587c15.07569444 2.48588671 30.3117711 4.3302527 45.54784572 5.61329217 5.93405049 0.5613286 5.6132901 3.52835386 5.61329012 7.53784617v55.65176875c0 6.2548088-1.68398782 8.01898674-8.01898675 8.01898672a371.7602297 371.7602297 0 0 1-112.82714516-18.36348002 427.89313898 427.89313898 0 0 1-74.57657735-29.10892176 14.1936075 14.1936075 0 0 0-14.27379555 0 504.55465261 504.55465261 0 0 1-159.4976501 47.07145337c-35.76468101 4.73120321-35.76468101 4.49063291-35.76468102-30.79290961v-31.59480846c0-5.85386039 1.20284731-8.01898674 8.01898676-8.50012527a427.17143018 427.17143018 0 0 0 114.43094287-24.61829089 32.075947 32.075947 0 0 0 3.28778359-2.24531643zM3803.92311052 194.57161188v199.59258181c0 7.53784822 1.84436598 9.6227845 9.46240433 9.54259443 29.10892175-0.48113849 58.2980336 0 87.4871475-0.48113853 9.22183406 0 11.30677233 2.88683515 10.9058219 11.38696043a338.4814354 338.4814354 0 0 0 0 40.09493375c0.64151872 9.70297463-2.88683515 11.46715049-11.86810097 11.30677234-28.78816345-0.64151872-57.65651491 0-86.52486843 0-7.29727797 0-9.6227845 1.4434176-9.62278448 9.30202415 0.40094842 51.4818962 0 102.96379036 0.40095043 154.44568857 0 7.37746805-1.60379775 9.70297463-9.38221424 9.54259237-24.61828884-0.5613286-49.31676981-0.48113849-74.01524876 0-7.05670769 0-9.14164599-1.4434176-9.14164598-8.82088358 0.40094842-51.4818962 0-102.96379036 0.40095043-154.52587866 0-8.01898674-2.0047462-9.94354283-9.94354487-9.86335275h-181.79043239c-8.01898674 0-11.38696041-1.12265717-10.82563178-10.2643032a387.07649644 387.07649644 0 0 0 0-43.14214908c-0.40094842-8.01898674 2.48588671-9.46240432 9.78316467-9.46240434h181.71024229c8.82088562 0 11.0662021-2.24531645 10.98601199-10.98601198 0-127.66227132 0-255.24435258-0.40095045-382.90662187 0-8.01898674 2.64626486-10.82563181 10.34449332-12.02848114 24.05696023-3.84911421 48.11392048-8.01898674 72.17088276-12.83038002 7.13689778-1.36322748 10.02373294-0.40094842 9.94354284 8.01898677-0.24057029 67.76043792-0.0801901 134.87935922-0.08019011 202.07847053zM4092.60663758 280.13420127V9.57358401c0-8.58031535 3.20759551-10.58506358 10.66525164-11.78791087 23.49563164-3.68873402 46.9912633-8.01898674 70.40670483-12.10866921 11.38696041-2.08493627 11.30677233-2.40569664 11.30677234 9.46240433 0 32.075947 0.40094842 64.63303455 0 96.86936171 0 8.01898674 2.32550654 9.94354283 10.10392303 9.78316266 21.089935-0.5613286 42.26006011 0 63.43018519 0 5.77367028 0 8.01898674 1.20284731 7.61803833 7.29727796a765.09153695 765.09153695 0 0 0 0 46.99126327c0 6.2548088-1.92455609 7.37746805-7.61803833 7.29727796h-65.35474128c-6.09443066 0-8.01898674 1.20284731-8.01898676 8.01898678q0.48113849 80.18986956 0 161.10144579c0 6.17462077 1.4434176 8.01898674 8.01898676 8.01898676h64.151894c7.53784822 0 9.06145591 2.08493627 8.82088561 9.06145591-0.5613286 14.99550638 0 30.07120084 0 45.06670517 0 5.77367028-1.28303739 8.01898674-7.37746804 7.53784822h-65.43493343c-6.89632954 0-8.01898674 2.0047462-8.01898675 8.58031536v176.41771255a51.16113582 51.16113582 0 0 1-52.92531174 53.0856919h-125.01600646c-6.49537909 0-8.82088562-1.36322748-8.58031535-8.01898673 0.5613286-14.67474601 0.64151872-29.42968214 0-44.10442816-0.40094842-8.01898674 2.80664508-9.38221422 9.86335479-9.22183403 18.92480865 0.48113849 37.76942721 0 56.69423584 0a25.66075803 25.66075803 0 0 0 27.90607448-27.90607446q-0.48113849-135.76144815-0.6415187-270.88137561zM3013.25100564 639.22443318c-111.22334737-1.92455609-203.5218861-44.58556665-276.33428554-128.86511866-7.45765815-8.74069554-7.45765815-8.82088562-14.99550639 0a357.72700443 357.72700443 0 0 1-206.08796087 122.04897916 370.95833283 370.95833283 0 0 1-141.05397996 0c-7.45765815-1.36322748-10.42468338-4.0094944-9.94354284-12.26904935 0.88208897-15.23607462 0-30.63252943 0-46.02898626 0-3.68873402-0.40094842-6.49537909 5.37271985-5.93404845a316.26884114 316.26884114 0 0 0 312.74048731-167.3562567 11.38696041 11.38696041 0 0 1 11.70772077-7.37746802q34.64202381 0.48113849 69.28404764 0a11.70772077 11.70772077 0 0 1 12.0284791 6.97651965q73.1331598 134.39822068 223.4089738 164.62979967a299.50915887 299.50915887 0 0 0 88.77018487 3.20759346c4.81139124-0.48113849 6.17462077 0 6.09443068 5.2123417v50.8403775c0 4.25006262-1.04246915 5.93405049-5.53310208 6.81613942a339.28333426 339.28333426 0 0 1-75.45866634 8.09917688z" fill="#ffffff" /><path d="M2730.18077074 306.91761649h332.7077651c8.01898674 0 10.10392302 1.92455609 10.02373295 9.94354485-0.40094842 60.78392033 0 121.56784067 0 182.35176101 0 7.13689778-1.28303739 9.86335477-9.22183407 9.62278449-24.05696023-0.5613286-48.75543918-0.48113849-73.13316185 0-8.01898674 0-10.1841131-1.4434176-10.10392299-9.70297456 0.48113849-40.65626235 0-81.23233663 0.40095043-121.88860104 0-7.13689778-1.68398782-8.90107572-8.9010757-8.90107574h-484.66756492c-7.37746805 0-8.90107572 2.0047462-8.90107573 8.9812658v122.85087809c0 6.41518899-1.12265717 8.82088562-8.01898672 8.66050745-25.33999764-0.48113849-50.67999731 0-76.01999699 0-6.09443066 0-8.01898674-1.36322748-8.01898677-8.01898674V314.69603498c0-8.01898674 3.52835386-8.01898674 9.22183611-8.01898674zM1176.74263749 324.71976792c0.48113849 3.36797369-1.84436598 5.53310001-3.28778562 8.01898674a1050.48727842 1050.48727842 0 0 1-129.82739769 170.32327986c-8.01898674 8.66050545-8.01898674 8.66050545-13.31151649-1.6839858a1352.9634625 1352.9634625 0 0 0-143.70024482-227.73922653c-8.01898674-9.94354283-8.01898674-9.86335477 3.52835386-16.59930416a1278.78783356 1278.78783356 0 0 1 194.54062029-95.50613219 11.70772077 11.70772077 0 0 1 16.03797348 5.05196151 450.98782016 450.98782016 0 0 1 73.85487062 151.87960973c0.88208897 2.08493627 1.52360768 4.16987255 2.16512637 6.25481084zM335.95186389 341.63983039c35.84487113 0 71.60955212 2.0047462 107.2940451 5.37272187 6.09443066 0.5613286 6.97651759 2.56607478 5.7736703 8.01898675a1166.04087852 1166.04087852 0 0 0-24.05696026 144.82290203c-4.08968246 36.40619971-5.45291196 73.1331598-7.21708786 109.77992979s1.28303739 70.80765326 1.60379776 106.25157596c0 4.25006262-0.64151872 4.97177141-4.57082299 4.33025274-11.6275307-1.92455609-23.33525148-3.52835386-34.96278214-5.2123417a12.50961965 12.50961965 0 0 1-8.01898675-5.8538604A447.21889604 447.21889604 0 0 1 287.83794338 513.00557941a471.35604841 471.35604841 0 0 1 1.76417795-162.62505346c1.28303739-6.89632954 4.0094944-9.06145591 10.74544171-8.82088567 11.5473406 0.40094842 23.41544154 0.0801901 35.60430085 0.08019011zM608.59741746 2.59706637c129.90758777-54.04797098 365.42523078 7.37746805 451.78971902 118.03948683-10.26430322-0.72170879-19.56632733-1.20284731-28.86835149-2.08493828a1090.58221216 1090.58221216 0 0 0-142.97853604-3.36797368 972.86348571 972.86348571 0 0 0-121.08670213 10.66525163 20.6087965 20.6087965 0 0 1-19.64651745-5.93404844A1327.78384302 1327.78384302 0 0 0 613.4890008 6.92731913c-1.52360768-1.12265717-2.88683515-2.40569664-4.89158334-4.33025276zM2616.23096637 129.6980071v135.20011952c0 8.01898674-2.16512637 9.6227845-9.62278244 9.46240435-25.01923931-0.48113849-50.03847861 0-74.97752785 0-6.2548088 0-8.01898674-1.52360768-8.01898676-8.01898674V7.32826754c0-6.41518899 2.80664508-8.01898674 8.01898676-9.22183405 25.42018774-4.41044281 50.8403775-8.74069554 76.18037514-13.39170864 6.89632954-1.28303739 8.82088562 0.80189888 8.74069552 8.01898676-0.40094842 45.62803579-0.32076035 91.17588153-0.32076037 136.96429549zM2486.16300046 128.89610819V264.17641785c0 8.01898674-1.36322748 10.42468338-9.78316467 10.26430323-25.01923931-0.64151872-50.03847861 0-74.97752583 0-5.93405049 0-8.01898674-1.60379775-8.01898675-7.53784825V6.76693893c0-5.29253179 2.0047462-7.45765815 6.65575927-8.01898674 26.06170642-4.570823 52.12341487-9.06145591 78.10493122-13.79265705 7.37746805-1.36322748 7.53784822 2.56607478 7.45765815 8.01898673q0.5613286 67.76043792 0.56132861 135.92182632z" fill="#ffffff" /><path d="M1166.95947281 413.00881225a828.76229245 828.76229245 0 0 1-78.9870202 129.58682945C1032.6414422 617.57316749 966.48480203 680.361834 882.92695883 723.66436327a507.36129769 507.36129769 0 0 1-162.78543362 51.64227639 607.11749457 607.11749457 0 0 1-158.61555912 0c-38.33075783-4.49063291-76.42094542-9.86335477-114.51113297-16.03797352a58.69898407 58.69898407 0 0 1-7.37746803-1.92455811c0-1.52360768 0-2.64626486 1.84436597-1.6037957a972.46253526 972.46253526 0 0 0 110.26107033 3.76892208c182.51214117-6.65575925 344.81643429-65.35474332 480.65807258-189.4886588a783.53520508 783.53520508 0 0 0 128.30379001-153.40321943c1.36322748-2.08493627 2.88683515-4.16987255 4.25006265-6.33499889 1.92455609 0.16038018 2.88683515 0.64151872 2.00474618 2.72645496zM574.35634408 14.30478715c-17.24082078 34.64202381-34.40145355 69.12366745-49.31676986 104.24682777-9.6227845 22.85411294-18.60405031 45.94879413-27.74569423 68.96328725a12.42942957 12.42942957 0 0 1-7.37746806 8.90107571A1237.73062074 1237.73062074 0 0 0 312.45623427 281.2568585a22.61354268 22.61354268 0 0 1-4.49063289 1.2028493c50.43942704-128.78492852 138.72847343-217.87587379 266.3907427-268.15492065zM3684.6807764 180.4581945a225.17315177 225.17315177 0 0 0-109.05822102-53.16588404 109.69973969 109.69973969 0 0 0-25.58056789-2.80664509c-5.2123417 0-7.29727797-1.28303739-7.29727797-6.97651757v-80.18986953c0-5.2123417 1.92455609-6.73594935 6.73594732-6.3349989a228.46093534 228.46093534 0 0 1 131.59157565 52.84512368 9.6227845 9.6227845 0 0 1 4.00949234 8.01898672c-0.48113849 28.70797332-0.40094842 57.73670498-0.40094843 88.60980473zM2032.04777488 139.88212019a221.72498597 221.72498597 0 0 0 53.08569393-108.41670232 114.9120814 114.9120814 0 0 0 2.96702322-25.17961745c0-5.3727219 1.12265717-8.01898674 7.45765816-8.01898673q40.09493374 0.48113849 79.78891906 0c5.6132901 0 7.13689778 2.0047462 6.65575926 7.29727793a226.85713754 226.85713754 0 0 1-51.48189416 129.02549883 11.38696041 11.38696041 0 0 1-9.30202616 5.6132901c-29.10892175-0.40094842-58.13765547-0.32076035-89.17113331-0.32076036zM3684.6807764 362.32881697a224.53163105 224.53163105 0 0 0-106.09119577-52.68474347 122.20935936 122.20935936 0 0 0-27.50512603-3.20759552c-6.41518899 0-8.90107572-1.68398782-8.74069554-8.58031536q0.5613286-38.33075783 0-76.6615157c0-6.81613946 1.92455609-8.90107572 8.58031535-8.01898674a231.82891101 231.82891101 0 0 1 117.79891859 42.74120066 32.95803597 32.95803597 0 0 1 16.03797351 32.07594702c-1.20284731 23.73620192-0.0801901 47.95354231-0.08019011 74.33600911zM1791.87911877 139.88212019c-25.66075803 0-51.4818962-0.72170879-77.14265419 0a26.14189651 26.14189651 0 0 1-24.53809877-12.18885929 230.78644188 230.78644188 0 0 1-46.18936441-121.32727039c-0.48113849-5.53310001 0-8.82088562 7.29727797-8.74069757h79.78891907c4.81139124 0 6.57556918 1.36322748 6.81613946 6.49538112a215.38998704 215.38998704 0 0 0 52.5243633 131.27081321 24.53810078 24.53810078 0 0 1 1.68398786 2.32550657s-0.0801901 0.96227906-0.24057029 2.16512635zM3018.30296922 851.4068247c9.30202414-32.075947 18.76442847-64.15189399 27.58531408-96.94955181 1.92455609-7.05670769 5.6132901-8.01898674 12.02848113-8.01898676a9.14164599 9.14164599 0 0 1 10.90582192 8.01898676c8.50012528 32.075947 17.16063273 64.15189399 26.14189652 97.51088042 8.01898674-32.075947 16.67949219-62.94904669 24.05696022-93.98252658 2.24531645-9.6227845 6.2548088-13.55208677 16.03797351-11.62753071a37.60904906 37.60904906 0 0 0 6.89632953 0c-4.65101309 16.92006246-9.06145591 33.19860626-13.55208882 49.47715004-6.81613946 24.45791071-14.27379759 48.67525113-20.44841627 73.29353998-2.08493627 8.50012528-7.21708786 8.01898674-13.23132846 8.01898678s-10.26430322 0-12.34923948-8.01898678c-8.01898674-30.3117711-16.83987241-60.38297189-25.66075802-91.81740019-7.53784822 26.46265689-14.75493611 52.04322479-22.05221405 77.5436026a62.3877181 62.3877181 0 0 0-3.04721532 10.98601198c-0.80189888 9.14164599-5.29253179 11.70772077-14.35398568 11.38696247-7.29727797 0-10.1841131-2.24531645-12.18885927-9.46240435-10.66525164-38.17037766-22.05221409-76.10018507-33.11841615-114.19037463a58.2980336 58.2980336 0 0 1-1.36322749-6.49537909 6.81613946 6.81613946 0 0 1 1.92455611-0.6415187c17.32101087-0.5613286 17.24082078-0.48113849 21.97202393 16.92006247 7.6180383 29.34949203 15.71721516 58.61879397 23.81639206 88.0484761z" fill="#ffffff" /><path d="M4030.86043818 771.53771554v95.42594416a10.66525164 10.66525164 0 0 1-16.0379735 9.78316263c-2.96702523-1.20284731-2.32550654-3.52835386-2.32550653-5.53310001V752.29214651c0-4.570823 1.68398782-5.53310001 6.09443066-6.09442862a23.57582177 23.57582177 0 0 1 25.98151834 13.39170661c16.83987241 28.46740305 35.36373259 56.13290725 53.24607213 83.87860356 0.96227906 1.52360768 1.4434176 3.52835386 4.65101307 4.00949232v-54.28854124-41.21759095c0-8.01898674 5.53310001-5.3727219 9.30202415-5.37272187s9.14164599-2.56607478 9.14164397 5.45291196v118.84138367c0 4.41044281-1.20284731 5.85386039-5.93405047 6.25481087a21.41069538 21.41069538 0 0 1-23.1748713-11.38696246c-17.32101087-28.62778323-36.16563148-56.13290725-54.36873134-84.35974005z" fill="#ffffff" /><path d="M2665.14678778 771.29714526v97.51088042c0 6.97651759-2.08493627 8.58031535-8.58031738 8.01898673s-9.14164599 0-9.06145385-8.01898673c0.48113849-38.41094793 0.40094842-76.74170374 0-115.07246158 0-6.49537909 2.08493627-7.53784822 8.01898669-8.01898673a20.84936676 20.84936676 0 0 1 22.05221411 11.70772076c18.36348005 30.231581 37.92980738 59.66126314 57.17537638 89.57208375 3.44816374-2.24531645 1.92455609-5.3727219 1.92455611-8.01898673V754.53746299c0-7.29727797 1.92455609-9.38221422 9.06145591-8.98126585s9.7831647 0 9.70297256 8.01898678c-0.5613286 38.00999748-0.40094842 76.10018507 0 114.11018453 0 6.89632954-2.08493627 8.01898674-8.58031538 8.50012528a19.48613725 19.48613725 0 0 1-19.96727779-10.50487347c-18.76442847-30.39196116-38.491136-60.14240163-57.89708516-90.13341236-0.72170879-0.24057029-1.68398782-1.36322748-3.8491122-4.25006264zM1924.59335163 770.89619685c0 34.40145355-0.40094842 66.07645213 0 97.75144864 0 8.01898674-3.12740542 8.01898674-9.46240433 8.50012733s-8.01898674-2.16512637-8.01898678-8.66050548q0.48113849-56.53385769 0-113.14790549c0-6.97651759 1.36322748-8.82088562 8.74069558-9.30202415a20.44841632 20.44841632 0 0 1 21.08993498 11.78791087c18.68423839 30.3117711 38.25056774 60.06221153 59.01974238 92.37872884v-34.00050512-64.15189401c0-8.01898674 5.13215161-5.93405049 9.06145592-5.61329215s10.02373294-3.20759551 10.02373295 5.61329215v118.92157375c0 4.81139124-1.92455609 5.45291196-6.17461874 6.01424057a21.73145372 21.73145372 0 0 1-24.05696228-12.18885927c-18.84461855-30.79290961-38.97227655-61.02449059-60.22258968-93.90233648zM2546.30540208 844.18973682c0-30.39196116 0-60.70373023-0.40095044-91.01550132 0-9.06145591 5.53310001-6.49537909 10.10392503-6.73594937s9.22183406-1.36322748 9.14164397 6.73594937c-0.48113849 38.97227655 0 77.94455306 0 116.91682758 0 5.53310001-1.84436598 6.57556918-7.05670769 7.05670974a20.6087965 20.6087965 0 0 1-22.21259425-11.30677239c-17.88234154-29.02873164-36.80715019-57.41594669-55.41119847-85.96353778-1.28303739-2.08493627-2.72645497-4.0094944-5.6934802-8.01898675v97.67125858c0 8.01898674-3.36797369 8.01898674-9.14164601 8.01898674s-8.66050545 0-8.58031533-7.29727795c0.40094842-38.65151618 0-77.30303234 0-115.95454854 0-5.77367028 1.36322748-7.05670769 7.29727793-8.01898876a21.089935 21.089935 0 0 1 22.77392287 12.1086712c18.36348005 30.231581 37.76942721 59.82164125 56.77442595 89.65227389 4.49063291 0.24057029 2.48588671-2.16512637 2.40569664-3.84911424zM1228.545292 211.17091402c2.16512637-13.4718987 3.52835386-25.7409481 6.25480879-37.68923916a9.14164599 9.14164599 0 0 0-3.12740339-9.86335275c-8.58031535-8.74069554-17.00025255-17.72196137-25.74094805-26.86360532 10.58506358-1.52360768 21.1701251-3.28778561 32.07594697-4.41044279a15.23607462 15.23607462 0 0 0 14.35398565-10.10392506c4.3302527-10.1841131 9.7831647-19.88708773 15.39645483-31.03347785 5.53310001 11.22658228 10.82563181 21.00974493 15.15588654 31.19385801a15.23607462 15.23607462 0 0 0 14.43417573 9.9435449c10.66525164 1.04246915 21.25031521 2.88683515 32.71746572 4.49063085-8.82088562 8.9812658-16.92006246 17.48139108-25.33999765 25.50037988a12.1888593 12.1888593 0 0 0-4.16987254 13.39170655c2.64626486 11.22658228 4.0094944 22.77392286 6.09442861 35.52411283-11.94829105-6.2548088-22.69373276-11.6275307-33.27879429-17.56158117a10.42468338 10.42468338 0 0 0-11.46715251 0c-10.82563181 5.85386039-21.57107555 11.30677233-33.35898441 17.48139108z" fill="#ffffff" /><path d="M3980.82196159 811.87321954v57.49613477c0 8.01898674-3.60854394 8.01898674-9.22183607 8.01898672s-10.10392302 1.28303739-9.70297463-7.29727795c0.72170879-14.35398564 0-28.70797332 0-43.14214909 0-5.85386039-1.52360768-8.01898674-7.53784615-7.5378462q-24.85885915 0.64151872-49.95828855 0c-5.45291196 0-7.05670769 1.52360768-6.97651962 6.97651761 0.40094842 14.67474601-0.40094842 29.42968214 0 44.10442812 0.40094842 8.01898674-4.16987255 6.97651759-8.98126379 6.81613946s-10.02373294 1.84436598-9.9435449-6.97651963q0.72170879-57.97727526 0-115.95455054c0-8.01898674 3.84911421-8.01898674 9.38221427-8.01898679s10.02373294-1.20284731 9.54259442 7.29727801c-0.72170879 14.03322731 0 28.06645463 0 42.17987203 0 4.89158132 1.20284731 6.65575925 6.415191 6.57556916h50.92056555c5.3727219 0 7.21708786-1.4434176 7.13689777-6.97651962-0.40094842-14.03322731 0-28.14664475 0-42.17987002-0.40094842-8.9812658 5.3727219-6.57556918 10.1039251-6.81613945s9.06145591-0.80189888 8.8208856 6.97651964c-0.40094842 19.48613725 0 38.73170626 0 58.45841377z" fill="#ffffff" /><path d="M4611.59546593 769.77353762a121.40746049 121.40746049 0 0 0-27.18436362-8.74069556c-33.11841616-5.13215161-58.69898407 16.03797349-59.18012461 49.31676984 0 25.90132828 10.1841131 43.62328758 30.07120082 50.03847861a64.15189399 64.15189399 0 0 0 16.0379735 2.96702522c20.28803614 0.88208897 25.25980958-4.08968246 25.25980956-24.05696226 0-16.03797349 0-15.4766449-16.03797348-16.03797349-4.25006262 0-12.10866919 5.0519615-12.75018993-5.61329012-0.48113849-7.29727797 1.28303739-10.26430322 9.22183607-9.7029746a278.25884364 278.25884364 0 0 0 31.67499655 0c5.13215161 0 6.57556918 1.68398782 6.4953811 6.65575925v48.11392253c0 2.96702523 0 5.53310001-3.20759549 7.29727796-21.41069538 12.02848115-64.15189399 15.23607462-85.56258938-5.69348223a74.09543887 74.09543887 0 0 1-14.7549361-78.9068301 64.15189399 64.15189399 0 0 1 61.42543902-40.09493373 146.18612953 146.18612953 0 0 1 27.66550416 2.08493625c8.01898674 2.16512637 13.23132844 5.6132901 11.14639219 15.07569443a43.86385787 43.86385787 0 0 0-0.32076036 7.297278zM2142.78998373 769.29239908a209.3757465 209.3757465 0 0 0-26.06170846-8.01898674c-38.491136-7.13689778-64.87360276 23.33525148-58.77917214 62.30752797 5.0519615 32.55708754 31.35423823 44.82613692 60.94429849 37.9298074 6.3349989-1.4434176 11.38696041-4.25006262 9.62278453-12.26904939a14.8351262 14.8351262 0 0 1 0-1.92455609c0-7.6180383 2.32550654-17.16063273-1.36322749-22.29278432s-13.79265705-1.76417793-21.00974493-1.36322748-6.17462077-4.08968246-6.49537909-8.50012732 0.80189888-7.45765815 6.65575929-7.21708785c11.22658228 0.48113849 22.45316249 0 33.67974474 0 4.570823 0 6.01424055 1.28303739 5.93405052 5.93405046v49.87809846c0 2.56607478 0 4.81139124-2.80664712 6.3349989-21.49088546 11.6275307-65.99626202 16.03797349-87.40695536-8.90107371-20.20784604-23.17487127-21.97202397-49.39695994-11.62753071-76.82189585a61.02449059 61.02449059 0 0 1 59.74145119-39.61379319 95.66651236 95.66651236 0 0 1 24.05696024 1.20284731c17.32101087 4.25006262 17.32101087 4.08968246 14.9153163 23.33525144zM1653.31102556 811.39208106c0-19.16537893 0.48113849-38.33075783 0-57.49613678 0-8.01898674 3.76892411-7.53784822 9.22183404-7.61803831s8.82088562 0 8.5001273 7.45765813c-0.64151872 14.03322731 0 28.06645463 0 42.17987204 0 4.97177141 1.36322748 6.57556918 6.41518898 6.49537908h52.84512371c5.2123417 0 6.41518899-1.76417793 6.33499888-6.65575927 0-14.03322731 0.48113849-28.14664475 0-42.09968192 0-8.50012528 4.49063291-6.97651759 9.5425944-7.37746806s8.01898674 1.04246915 8.01898675 8.01898876c0 38.65151618-0.40094842 77.30303234 0 115.95454854 0 8.01898674-3.76892411 7.13689778-8.74069552 7.05670971s-9.38221422 1.20284731-8.98126381-6.89632956c0.72170879-14.67474601 0-29.34949203 0-44.02423802 0-5.45291196-1.36322748-7.13689778-6.89632948-7.05670769-17.32101087 0-34.56183374 0.40094842-51.88284465 0-5.6132901 0-6.97651759 1.84436598-6.81613944 7.13689777 0 14.35398564-0.40094842 28.78816345 0 43.061959 0 8.01898674-3.28778561 8.01898674-9.06145589 8.01898674s-8.82088562-1.20284731-8.66050546-8.01898674c0.5613286-19.80689763 0.16038018-38.97227655 0.16038019-58.13765342zM1889.38999918 876.42606402c-19.48613725 1.28303739-19.48613725 1.28303739-25.90132826-15.47664491-7.37746805-19.24556901-7.37746805-19.24556901-27.42493392-19.24556901a200.47467078 200.47467078 0 0 1-23.01449312 0c-8.01898674-1.04246915-11.6275307 2.72645497-13.47189871 9.7029746-0.88208897 3.36797369-2.16512637 6.57556918-3.28778357 9.86335273-5.93405049 16.83987241-5.93405049 16.83987241-25.33999968 15.23607668 10.50487345-27.74569426 21.00974493-55.25082032 31.51461839-82.75594432 5.29253179-13.95303725 10.98601199-27.74569426 16.03797555-41.85911169a6.57556918 6.57556918 0 0 1 8.50012522-5.21234169c4.89158132 0.88208897 11.70772077-3.44816374 14.43417577 3.68873403 15.95778339 41.77892161 31.75518866 83.39746302 47.95354233 126.05847358zM2438.85097886 876.18549373a2.64626486 2.64626486 0 0 1-0.9622791 0.48113854c-18.04271968 1.28303739-18.04271968 1.28303739-24.05696026-15.23607463-7.29727797-19.72670753-7.29727797-19.80689763-28.94854357-19.72670754-10.1841131 0-22.37297242-2.88683515-30.07120081 1.68398785s-8.01898674 17.80215145-11.30677033 27.34474586c-1.52360768 4.41044281-3.52835386 6.97651759-8.74069555 6.33499889a109.13841108 109.13841108 0 0 0-13.79265701 0l22.93430094-59.82164125c8.01898674-21.65126362 16.92006246-43.14214908 24.61829094-64.95379494 2.32550654-6.57556918 6.49537909-6.01424055 11.14639012-5.6132901s9.86335477-2.32550654 12.58980973 4.9717714c15.07569444 40.09493374 30.63252943 80.75119814 46.02898421 121.08670218a26.14189651 26.14189651 0 0 1 0.56133069 3.44816374z" fill="#ffffff" /><path d="M3506.25831767 876.90720253a131.030245 131.030245 0 0 0-16.03797348 0 15.4766449 15.4766449 0 0 1-15.15588455-7.45765814c-13.15113836-16.51911201-26.70322716-32.71746571-40.09493373-48.99600948a4.570823 4.570823 0 0 0-4.73120319-2.40569664c0 16.67949219-0.48113849 33.51936458 0 50.27904888 0 8.01898674-2.88683515 8.74069554-9.46240433 8.66050545s-9.5425944 0-9.46240434-8.50012526c0.5613286-38.09018756 0.40094842-76.18037514 0-114.19037261 0-7.13689778 2.32550654-8.66050545 8.74069556-8.01898876s10.58506358-1.12265717 10.10392302 8.01898876c-0.72170879 16.03797349 0 32.075947 0 51.00075565l39.29303689-46.42993466c11.46715049-13.4718987 11.46715049-13.4718987 32.07594701-11.54734062-14.51436585 16.59930211-28.38721296 32.63727563-42.50063036 48.51487096-11.5473406 13.07094825-11.70772077 12.99075819-0.56132861 25.90132624 15.4766449 17.72196137 30.8730997 35.68449095 47.79316011 55.17063023z" fill="#ffffff" /><path d="M4040.72379296 162.89661333h-34.56183371c-5.45291196 0-8.01898674-0.88208897-8.01898678-7.21708788 0.48113849-16.03797349 0-32.075947 0-48.11392253 0-5.0519615 1.52360768-6.49537909 6.57556918-6.49537909h73.85486863c4.41044281 0 6.17462077 1.04246915 6.09443064 5.77367032v49.79790832c0 4.570823-1.28303739 6.09443066-5.93405048 6.01424058-12.58980974 0.0801901-25.42018774 0.24057029-38.00999748 0.24057028zM4042.00683033 339.55489413h36.40619973c5.13215161 0 6.49537909 1.52360768 6.41519104 6.49537907v48.83562928c0 5.29253179-1.92455609 6.2548088-6.65575925 6.25481087h-72.89259161c-5.3727219 0-7.21708786-1.36322748-7.13689777-6.89632955q0.5613286-24.05696023 0-48.11392053c0-5.77367028 2.08493627-6.97651759 7.29727797-6.8161394 12.1888593 0.48113849 24.37772063 0.24057029 36.56657989 0.24057026zM2267.88617823 876.90720253h-16.0379735a9.14164599 9.14164599 0 0 1-9.86335474-5.6132901c-9.22183406-16.03797349-18.68423839-32.075947-28.06645266-47.632782-8.74069554 14.27379759-18.12290975 28.30702287-26.06170843 43.06195895a16.03797349 16.03797349 0 0 1-18.84461856 10.18411315 63.67075549 63.67075549 0 0 0-9.78316469 0c13.15113836-19.96727778 25.17961947-39.05246662 38.17037767-57.41594465a12.83037796 12.83037796 0 0 0 0-16.92006244c-10.42468338-16.03797349-20.20784604-32.47689745-30.15139092-48.83563134-1.28303739-2.08493627-3.20759551-3.9293043-3.04721328-6.73594937 14.11341741-3.28778561 24.05696023 0 29.91082063 14.75493611a339.28333426 339.28333426 0 0 0 20.44841629 36.24582158c8.01898674-12.75018993 16.03797349-24.05696023 22.21259425-36.8071502s14.59455591-18.20309985 29.34949-13.63227687a406.00130507 406.00130507 0 0 1-27.505124 42.9015788c-12.1888593 14.8351262-11.38696041 26.62303707 0 41.21759302s19.16537893 29.18911185 29.26930194 45.22708536z" fill="#ffffff" /><path d="M2787.0353868 811.71283939v-57.49613473c0-5.3727219 0.64151872-8.01898674 7.21708785-8.01898677q27.26455577 0.72170879 54.76968181 0c6.89632954 0 6.57556918 3.20759551 6.81613741 8.01898677s-1.28303739 8.01898674-7.37746803 7.53784618c-11.86810098-0.48113849-24.05696023 0-35.52411078 0-6.17462077 0-8.01898674 1.84436598-7.37746805 7.61803834 0.48113849 8.90107572 0.40094842 17.88234154 0 26.78341521 0 5.29253179 1.76417793 6.49537909 6.65575927 6.33500093h32.07594698c7.29727797-0.40094842 8.01898674 2.64626486 8.01898677 8.82088562s-2.0047462 8.74069554-8.66050543 8.01898677c-10.1841131-0.5613286-20.52860639 0-30.71271954 0-5.2123417 0-8.01898674 0.96227906-7.21708786 6.73594936a285.15517319 285.15517319 0 0 0 1.2028473 35.1231623l33.43917652 0.64151872a64.15189399 64.15189399 0 0 0 9.62278247 0c8.01898674-1.36322748 10.50487345 2.32550654 9.78316468 10.02373293-0.48113849 4.16987255-1.60379775 5.45291196-5.6934802 5.45291196h-60.54335211c-5.3727219 0-6.3349989-2.16512637-6.25480879-6.81613946-0.16038018-19.72670753-0.24057029-39.29303486-0.24057027-58.77917413zM3669.92584029 811.63264927v-56.53385769c0-6.3349989 1.04246915-9.06145591 8.01898675-8.82088561q26.9437954 0.72170879 53.80740275 0c7.13689778 0 6.65575925 3.36797369 6.7359473 8.01898876s0 8.01898674-6.49537907 7.45765611c-12.10866919-0.48113849-24.05696023 0-36.48638982 0-5.0519615 0-7.53784822 0.72170879-7.29727794 6.65575927 0.48113849 9.22183406 0.48113849 18.52386025 0 27.74569428 0 5.3727219 1.92455609 6.41518899 6.65575928 6.25481083h32.07594696c7.37746805-0.48113849 8.01898674 2.80664508 8.01898677 8.90107572s-0.80189888 8.74069554-8.01898677 8.01898677c-10.82563181-0.64151872-21.73145372 0-32.63727557 0-4.49063291 0-6.73594935 1.12265717-6.0142406 5.85386038a3.84911421 3.84911421 0 0 1 0 0.96227702 213.0644805 213.0644805 0 0 0 1.1226572 35.04297426l33.51936662 0.64151872a64.15189399 64.15189399 0 0 0 9.6227845 0c8.50012528-1.4434176 10.26430322 2.56607478 9.62278248 10.10392302-0.40094842 4.25006262-1.76417793 5.3727219-5.6934802 5.37272187h-60.62354013c-5.45291196 0-6.17462077-2.32550654-6.17462078-6.89632956 0.32076035-19.72670753 0.24057029-39.29303486 0.24057027-58.77917415z" fill="#ffffff" /><path d="M1547.6207782 851.88796322c16.03797349 8.01898674 30.3117711 14.59455591 47.39221377 10.02373496a16.59930211 16.59930211 0 0 0 13.87284712-11.54734263 18.28328995 18.28328995 0 0 0-6.09443065-19.80689761 121.24708029 121.24708029 0 0 0-22.29278437-12.91056808 124.53486591 124.53486591 0 0 1-19.64651741-11.70772081 32.075947 32.075947 0 0 1 3.20759547-54.60929954c17.40120099-10.26430322 36.24582156-8.01898674 54.93005996-4.41044285 4.0094944 0.72170879 7.37746805 16.03797349 4.33025275 19.40594718s-4.08968246 0-5.93405052-1.12265721a51.32151601 51.32151601 0 0 0-36.16563144-3.52835589 18.28328995 18.28328995 0 0 0-14.35398567 13.79265909 16.75968227 16.75968227 0 0 0 9.38221422 18.36348006c11.30677233 6.49537909 23.01449314 12.42942957 34.08069521 19.24556695a32.95803597 32.95803597 0 0 1 17.96252959 26.54284699c1.04246915 22.77392286-11.30677233 36.88734026-35.04297226 38.97227655a110.74220887 110.74220887 0 0 1-33.2787963-1.84436805c-9.06145591-1.92455609-14.43417572-5.85386039-12.42942955-16.03797348a51.96303472 51.96303472 0 0 0 0.08019008-8.82088563zM3855.24462653 855.25593892c1.04246915 17.88234154 1.12265717 18.44367013-16.03797346 21.73145368-25.98151837 4.97177141-50.67999731 3.44816374-68.80290712-19.24556899-25.98151837-32.55708754-17.56158115-100.15714529 36.96752834-112.26581451a90.77493107 90.77493107 0 0 1 42.74120064 1.36322749 6.89632954 6.89632954 0 0 1 5.85386038 8.01898674c-0.40094842 3.76892411 0 7.6180383 0 12.50961965-27.98626455-11.30677233-53.96778086-12.99075819-72.5718312 14.75493612a60.78392033 60.78392033 0 0 0 1.9245561 63.26980503c14.03322731 18.92480865 30.8730997 21.33050526 69.92556632 9.86335479z" fill="#ffffff" /><path d="M3614.75521011 819.33087771c0 16.92006246-0.48113849 33.92031504 0 50.84037549 0 9.06145591-5.6132901 6.41518899-10.18411314 6.73594933s-8.90107572 0.72170879-8.74069553-6.97651761c0.48113849-33.27879631 0-66.55759062 0-99.75619687 0-6.65575925-1.36322748-9.14164599-8.01898675-8.58031536s-16.03797349 0-24.05696026 0-5.29253179-4.49063291-5.53310001-8.01898877 0-7.21708786 5.77367031-7.2170879q40.89683264 0.48113849 81.79366523 0c6.65575925 0 6.01424055 3.60854394 6.0142406 8.01898679s0.5613286 8.01898674-6.09443069 8.01898673-14.11341741 0.40094842-21.1701251 0-10.58506358 1.4434176-10.18411309 9.78316468c0.88208897 15.15588453 0.40094842 31.11366996 0.40094843 47.15164349zM2924.80158112 819.33087771c0 16.67949219-0.48113849 33.27879631 0 49.87809841 0 8.01898674-3.20759551 8.01898674-9.06145387 8.01898678s-10.02373294 0-9.86335476-8.01898678c0.5613286-32.63727563 0-65.27455325 0.40095047-97.91183086 0-8.01898674-2.08493627-10.10392302-9.54259444-9.30202413-6.01424055 0.5613286-12.26904937-0.48113849-18.28328994 0-8.41993721 1.04246915-10.50487345-2.32550654-9.70297459-10.10392303 0.40094842-4.0094944 1.28303739-5.45291196 5.53310002-5.45291197h82.67575421c7.21708786 0 5.2123417 4.65101309 5.53310207 8.4199372s0 7.37746805-5.9340505 7.1368978c-8.01898674-0.48113849-16.03797349 0-24.05696023 0-6.17462077 0-8.01898674 1.28303739-8.01898675 8.01898675 0.64151872 16.03797349 0.32076035 32.71746571 0.32075831 49.31676983zM4292.51997976 811.87321954c0-19.16537893 0.40094842-38.33075783 0-57.49613673 0-7.21708786 2.56607478-8.58031535 8.82088561-8.01898679s10.26430322-0.96227906 10.10392304 8.01898679c-0.5613286 32.87784587 0 65.75569175 0 98.63353967 0 7.37746805 2.08493627 9.22183406 9.14164597 8.9010757 12.10866919-0.5613286 24.05696023 0 36.48638982 0 6.01424055 0 6.65575925 2.56607478 6.57556916 7.45765613s0 8.01898674-6.81613946 8.01898672c-18.92480865-0.40094842-37.76942721-0.40094842-56.69423584 0-6.41518899 0-7.21708786-2.24531645-7.1368998-8.01898672-0.24057029-19.16537893-0.48113849-38.33075783-0.4811385-57.49613477zM2294.10826484 876.90720253a61.66600929 61.66600929 0 0 0-11.54734057 0c-9.38221422 1.68398782-10.50487345-3.20759551-9.8633548-10.74544174 0-3.84911421 1.84436598-5.2123417 5.2925318-4.65101308 6.49537909 1.04246915 7.05670769-2.56607478 7.05670972-8.01898674V769.13201891c0-5.13215161 0-8.74069554-6.97651964-8.01898677s-4.81139124-4.81139124-5.29253176-8.01898673 0-7.21708786 5.85386037-6.9765176c10.58506358 0.48113849 21.1701251 0.40094842 31.67499858 0 5.69348021 0 6.41518899 2.56607478 6.01424058 6.9765176s1.4434176 9.30202414-5.53310207 8.01898673-7.53784822 1.4434176-7.4576561 7.29727797v85.32202116c0 5.69348021 1.20284731 8.01898674 7.37746804 7.37746804s5.29253179 4.41044281 5.61329013 8.01898673 0 7.45765815-5.93405049 6.9765176-10.90582189 0.80189888-16.27854379 0.80189889z" fill="#ffffff" /><path d="M1166.95947281 413.00881225l-2.00474618-2.40569459a49.79790833 49.79790833 0 0 1 9.70297256-14.51436583 41.85911167 41.85911167 0 0 1-7.69822638 16.92006042z" fill="#ffffff" /><path d="M441.48173106 756.06107064l-1.84436597 1.60379778-13.47189875-2.08493629v-1.2830374a27.42493595 27.42493595 0 0 1 15.31626472 1.76417591z" fill="#ffffff" /><path d="M426.08527626 754.29689473a6.89632954 6.89632954 0 0 1 0 1.2830374l-6.57556917-1.9245581a4.08968246 4.08968246 0 0 1 6.57556917 0.6415207z" fill="#ffffff" /><path d="M2546.30540208 844.18973682c1.84436598 2.0047462 2.48588671 4.570823 0.6415187 6.33499893s-2.32550654-1.20284731-2.80664505-2.6462649c2.16512637-0.40094842 1.4434176-2.48588671 2.16512635-3.68873403z" fill="#ffffff" /><path d="M2120.33681921 289.91736393h-414.26086008c-8.01898674 0-10.66525164 1.36322748-10.66525163 10.18411514q0.64151872 147.22859867 0 294.45719735c0 8.90107572 2.72645497 10.1841131 10.74544175 10.18411312h367.18940869a53.80740273 53.80740273 0 0 0 56.77442599-56.13290929v-248.58859127c0.24057029-8.01898674-1.76417793-10.1841131-9.78316472-10.10392505z m-82.27480375 220.76270892c0 21.89183386-10.74544172 32.63727563-33.11841617 32.63727765H1795.40747262c-5.6132901 0-8.41993721-0.72170879-8.01898675-7.61803833V358.31932257c0-6.2548088 2.24531645-7.21708786 8.01898675-7.21708786H2029.8826485c7.21708786 0 8.9812658 1.76417793 8.90107575 8.98126581-0.88208897 50.19885677-0.72170879 100.39771558-0.72170879 150.59657233zM3273.5473197 790.94366269c-8.01898674-32.075947-27.66550416-46.51012478-61.66600927-46.42993266a56.6140478 56.6140478 0 0 0-58.05746335 45.46765564 104.88834848 104.88834848 0 0 0-2.24531642 32.87784588c2.16512637 31.35423823 27.74569426 58.13765547 59.90183136 56.13290726a56.13290725 56.13290725 0 0 0 56.61404776-32.07594702 80.18986956 80.18986956 0 0 0 5.45290992-55.9725291z m-24.9390492 53.64702255a42.09968194 42.09968194 0 0 1-46.8308831 17.08044268 43.78366777 43.78366777 0 0 1-30.63252944-36.56657991 74.17562895 74.17562895 0 0 1 3.52835385-38.49113805 41.69873149 41.69873149 0 0 1 43.38271936-26.38246677 40.81664254 40.81664254 0 0 1 37.68923711 39.05246663c0 4.16987255 0.48113849 8.01898674 0.56133065 10.10392302a61.5858192 61.5858192 0 0 1-7.69822843 35.2033524zM4490.58895589 803.21271411c-0.40094842-26.14189651-17.00025255-50.51961712-40.81664454-56.13290928-28.38721296-7.05670769-56.13290725-1.60379775-71.60955217 22.61354266a80.18986956 80.18986956 0 0 0-10.7454417 57.57632688c8.01898674 55.57157865 67.60005979 63.18961696 98.23258922 40.97702271 19.16537893-13.95303725 25.42018774-34.16088327 24.93904919-57.01499623 0-3.04721532 0.0801901-5.45291196 0-8.01898674z m-22.3729744 32.07594698a39.45341506 39.45341506 0 0 1-42.09967993 27.74569432 42.01949188 42.01949188 0 0 1-39.29303691-35.52411079c-3.76892411-20.28803614-2.16512637-39.45341506 12.91057009-55.17063019a40.09493374 40.09493374 0 0 1 43.14214911-10.10392302 38.89208642 38.89208642 0 0 1 26.7032251 29.75044045 67.35948951 67.35948951 0 0 1 1.92455811 20.12765797 56.13290725 56.13290725 0 0 1-3.28778557 23.25506135zM4269.18472829 804.81651186c-4.25006262-58.13765547-56.13290725-72.81240147-94.38347499-52.52436535-23.17487127 12.34923949-30.231581 34.80240195-30.3919612 59.82164332v5.77367031a60.46315996 60.46315996 0 0 0 50.19885879 60.78392031c36.40619971 4.570823 64.15189399-13.07094825 72.17088075-46.26955449a88.20885627 88.20885627 0 0 0 2.40569665-27.5853141z m-21.41069537 26.14189653a41.93930177 41.93930177 0 0 1-41.93930179 32.55708549 42.66101058 42.66101058 0 0 1-40.09493374-33.35898437 52.20360499 52.20360499 0 0 1-2.00474616-17.16063274 51.4017061 51.4017061 0 0 1 15.63702505-42.26006012 41.6185414 41.6185414 0 0 1 68.6425269 21.57107556 76.10018507 76.10018507 0 0 1-0.24057026 38.65151618zM3354.77965639 816.20347229c20.68898658-8.01898674 29.34949203-22.45316249 25.66075797-42.98176889-2.88683515-16.03797349-17.88234154-26.78341522-38.89208642-26.78341727h-34.56183372c-5.13215161 0-7.21708786 0.96227906-7.21708788 6.65575928v116.99701767c0 8.01898674 3.9293043 6.97651759 8.82088563 6.97651962s9.38221422 1.04246915 8.9010757-6.8963295c-0.72170879-13.39170861 0-26.86360531 0-40.0949338 0-2.80664508-1.52360768-6.57556918 3.92930433-6.89632952 10.66525164-0.72170879 20.52860639 0 26.78341518 10.58506358a254.68302193 254.68302193 0 0 1 17.24082284 28.54759315 22.77392286 22.77392286 0 0 0 27.82588437 14.83512621c0.48113849 0 0.96227906-0.5613286 2.4056946-1.28303739-13.79265705-19.56632733-23.33525148-41.85911167-40.8968326-59.66126314z m-18.44367013-10.02373292c-19.08518883 0-19.08518883 0-19.08518885-18.52386023v-3.52835385a11.78791086 11.78791086 0 0 1 0-3.76892412c1.68398782-6.01424055-4.49063291-14.67474601 3.1274054-17.88234155a39.13265671 39.13265671 0 0 1 38.0901876 8.98126583 24.05696023 24.05696023 0 0 1-1.20284733 25.98151836 24.05696023 24.05696023 0 0 1-20.92955682 8.74069556z" fill="#ffffff" /><path d="M1829.64854597 768.49050022c6.73594935 18.28328995 12.91056809 35.20335241 19.16537894 52.04322479 1.76417793 4.570823-0.72170879 4.81139124-4.00949236 4.81139325h-35.52411282zM2379.7510443 768.08955179c6.81613946 18.36348005 13.23132844 35.5241128 19.40594921 52.76493359 1.84436598 5.0519615-2.32550654 4.08968246-4.89158133 4.08968243h-34.88259408c6.81613946-18.60405031 13.39170861-36.88734026 20.3682262-56.85461602z" fill="#ffffff" /></svg>